<svg width="975" height="418" viewBox="0 0 975 418" fill="none" xmlns="http://www.w3.org/2000/svg">
<g opacity="0.3" clip-path="url(#clip0_104_1242)">
<path d="M312.973 334.077H268.503V412.125H160.682V334.077H0V254.35L167.814 8.87451H268.503V252.671H312.973V334.077ZM160.682 252.671V205.674C160.682 196.862 161.102 185.113 161.521 170.007C162.36 154.901 162.78 147.348 163.199 146.508H160.262C153.969 160.775 146.837 173.783 138.866 186.372L94.3954 252.671H160.682Z" fill="#E2B9AC"/>
<path d="M632.659 211.129C632.659 282.464 620.493 334.916 596.999 368.066C573.085 401.215 536.586 418 487.08 418C438.834 418 402.754 400.796 378.001 365.968C353.668 331.14 341.502 279.527 341.502 211.129C341.502 139.375 353.249 86.9231 377.582 53.3539C401.495 19.7846 437.995 3 487.5 3C535.327 3 571.827 20.6239 596.16 55.452C620.493 90.2801 632.659 141.893 632.659 211.129ZM449.742 211.129C449.742 256.868 452.679 288.339 458.133 305.123C464.006 322.328 473.236 330.72 486.661 330.72C500.086 330.72 509.735 321.908 515.609 304.284C521.063 286.66 524 255.609 524 211.129C524 166.231 521.063 135.179 515.609 117.135C509.735 99.092 500.506 90.2801 487.08 90.2801C473.655 90.2801 464.006 99.092 458.552 116.296C452.679 133.5 449.742 164.972 449.742 211.129Z" fill="#E2B9AC"/>
<path d="M975 334.077H930.529V412.125H822.709V334.077H662.027V254.35L829.841 8.87451H930.529V252.671H975V334.077ZM823.128 252.671V205.674C823.128 196.862 823.548 185.113 823.967 170.007C824.806 154.901 825.226 147.348 825.645 146.508H822.709C816.416 160.775 809.284 173.783 801.312 186.372L756.422 253.091H823.128V252.671Z" fill="#E2B9AC"/>
</g>
<path d="M439.142 355.004H474.355V403.421L469.953 412.224H430.339C427.698 412.224 425.938 410.463 425.938 407.822V394.618C425.938 388.456 430.339 382.734 436.501 381.853L439.142 381.413V355.004Z" stroke="#493628" stroke-width="3" stroke-miterlimit="10"/>
<path d="M434.741 381.413H463.351C469.513 381.413 474.355 384.054 474.355 390.216V394.618" stroke="#493628" stroke-width="3" stroke-miterlimit="10"/>
<path d="M526.733 355.004H491.521V407.822C491.521 410.463 493.282 412.224 495.922 412.224H544.339C546.98 412.224 548.741 410.463 548.741 407.822V394.618C548.741 388.456 544.339 382.734 538.177 381.853L526.733 381.413V355.004Z" stroke="#493628" stroke-width="3" stroke-miterlimit="10"/>
<path d="M501.144 46.0157C501.144 48.7941 498.755 50.7976 496.363 50.7976C493.584 50.7976 491.581 48.4078 491.581 46.0157C491.581 43.2373 493.971 41.2339 496.363 41.2339C499.141 41.2339 501.144 43.6236 501.144 46.0157Z" fill="#493628" stroke="#493628"/>
<path d="M524.032 46.0157C524.032 48.7941 521.642 50.7976 519.25 50.7976C516.472 50.7976 514.469 48.4078 514.469 46.0157C514.469 43.2373 516.858 41.2339 519.25 41.2339C520.408 41.2339 521.608 41.8178 522.528 42.738C523.448 43.6582 524.032 44.8579 524.032 46.0157Z" fill="#493628" stroke="#493628"/>
<path d="M434.741 107.637V54.8185C434.741 25.7683 458.51 2 487.56 2C516.61 2 540.378 25.7683 540.378 54.8185V107.637C561.066 178.062 581.313 248.927 602 319.351C598.479 321.552 587.915 328.154 572.95 326.834C562.386 325.954 555.344 321.552 551.822 319.351C549.181 321.112 541.259 326.834 529.375 326.834C517.05 326.834 508.687 321.112 506.486 319.351C503.846 321.552 495.483 327.274 483.158 326.834C472.154 326.834 464.232 321.992 461.591 319.791C458.95 321.552 451.027 326.834 439.583 326.834C428.579 326.834 420.656 321.992 418.015 319.791C415.375 321.552 407.452 326.834 396.448 326.834C384.564 326.834 376.641 321.112 374 319.351C393.367 248.927 414.054 178.062 434.741 107.637Z" stroke="#493628" stroke-width="3" stroke-miterlimit="10"/>
<defs>
<clipPath id="clip0_104_1242">
<rect width="975" height="415" fill="white" transform="translate(0 3)"/>
</clipPath>
</defs>
</svg>
