<svg width="106" height="36" viewBox="0 0 106 36" fill="none" xmlns="http://www.w3.org/2000/svg">
<path d="M0.8195 1.016C1.6515 1.048 2.7395 1.08 4.0835 1.112C5.4275 1.144 6.7715 1.16 8.1155 1.16C9.6515 1.16 11.1395 1.144 12.5795 1.112C14.0195 1.08 15.0435 1.064 15.6515 1.064C19.6195 1.064 22.5795 1.768 24.5315 3.176C26.5155 4.584 27.5075 6.392 27.5075 8.6C27.5075 9.72 27.1715 10.856 26.4995 12.008C25.8275 13.16 24.7875 14.184 23.3795 15.08C21.9715 15.976 20.1475 16.632 17.9075 17.048V17.144C20.9155 17.368 23.2995 17.912 25.0595 18.776C26.8195 19.64 28.0835 20.68 28.8515 21.896C29.6195 23.112 30.0035 24.376 30.0035 25.688C30.0035 27.704 29.4755 29.4 28.4195 30.776C27.3635 32.152 25.8435 33.208 23.8595 33.944C21.8755 34.648 19.5075 35 16.7555 35C15.9875 35 14.8835 34.984 13.4435 34.952C12.0035 34.888 10.2595 34.856 8.2115 34.856C6.8035 34.856 5.4275 34.872 4.0835 34.904C2.7395 34.904 1.6515 34.936 0.8195 35V34.04C1.8435 33.976 2.6115 33.848 3.1235 33.656C3.6355 33.464 3.9715 33.08 4.1315 32.504C4.3235 31.928 4.4195 31.064 4.4195 29.912V6.104C4.4195 4.92 4.3235 4.056 4.1315 3.512C3.9715 2.936 3.6195 2.552 3.0755 2.36C2.5635 2.136 1.8115 2.008 0.8195 1.976V1.016ZM15.0275 1.976C13.7795 1.976 12.9635 2.248 12.5795 2.792C12.2275 3.336 12.0515 4.44 12.0515 6.104V29.912C12.0515 31.032 12.1315 31.88 12.2915 32.456C12.4835 33.032 12.8035 33.416 13.2515 33.608C13.7315 33.8 14.4355 33.896 15.3635 33.896C17.6675 33.896 19.3475 33.176 20.4035 31.736C21.4915 30.264 22.0355 28.184 22.0355 25.496C22.0355 23.032 21.4115 21.128 20.1635 19.784C18.9475 18.44 16.9155 17.768 14.0675 17.768H9.9875C9.9875 17.768 9.9875 17.64 9.9875 17.384C9.9875 17.096 9.9875 16.952 9.9875 16.952H14.1155C15.6195 16.952 16.7715 16.6 17.5715 15.896C18.3715 15.16 18.9315 14.2 19.2515 13.016C19.5715 11.8 19.7315 10.504 19.7315 9.128C19.7315 6.76 19.3635 4.984 18.6275 3.8C17.8915 2.584 16.6915 1.976 15.0275 1.976ZM76.1945 1.016C77.0265 1.048 78.1145 1.08 79.4585 1.112C80.8025 1.144 82.1465 1.16 83.4905 1.16C85.0265 1.16 86.5145 1.144 87.9545 1.112C89.3945 1.08 90.4185 1.064 91.0265 1.064C94.9945 1.064 97.9545 1.768 99.9065 3.176C101.891 4.584 102.883 6.392 102.883 8.6C102.883 9.72 102.547 10.856 101.875 12.008C101.203 13.16 100.163 14.184 98.7545 15.08C97.3465 15.976 95.5225 16.632 93.2825 17.048V17.144C96.2905 17.368 98.6745 17.912 100.435 18.776C102.195 19.64 103.459 20.68 104.227 21.896C104.995 23.112 105.379 24.376 105.379 25.688C105.379 27.704 104.851 29.4 103.795 30.776C102.739 32.152 101.219 33.208 99.2345 33.944C97.2505 34.648 94.8825 35 92.1305 35C91.3625 35 90.2585 34.984 88.8185 34.952C87.3785 34.888 85.6345 34.856 83.5865 34.856C82.1785 34.856 80.8025 34.872 79.4585 34.904C78.1145 34.904 77.0265 34.936 76.1945 35V34.04C77.2185 33.976 77.9865 33.848 78.4985 33.656C79.0105 33.464 79.3465 33.08 79.5065 32.504C79.6985 31.928 79.7945 31.064 79.7945 29.912V6.104C79.7945 4.92 79.6985 4.056 79.5065 3.512C79.3465 2.936 78.9945 2.552 78.4505 2.36C77.9385 2.136 77.1865 2.008 76.1945 1.976V1.016ZM90.4025 1.976C89.1545 1.976 88.3385 2.248 87.9545 2.792C87.6025 3.336 87.4265 4.44 87.4265 6.104V29.912C87.4265 31.032 87.5065 31.88 87.6665 32.456C87.8585 33.032 88.1785 33.416 88.6265 33.608C89.1065 33.8 89.8105 33.896 90.7385 33.896C93.0425 33.896 94.7225 33.176 95.7785 31.736C96.8665 30.264 97.4105 28.184 97.4105 25.496C97.4105 23.032 96.7865 21.128 95.5385 19.784C94.3225 18.44 92.2905 17.768 89.4425 17.768H85.3625C85.3625 17.768 85.3625 17.64 85.3625 17.384C85.3625 17.096 85.3625 16.952 85.3625 16.952H89.4905C90.9945 16.952 92.1465 16.6 92.9465 15.896C93.7465 15.16 94.3065 14.2 94.6265 13.016C94.9465 11.8 95.1065 10.504 95.1065 9.128C95.1065 6.76 94.7385 4.984 94.0025 3.8C93.2665 2.584 92.0665 1.976 90.4025 1.976Z" fill="white"/>
<path d="M47.2775 0.919998C48.5255 0.919998 49.5335 1.016 50.3015 1.208C51.0695 1.368 51.7255 1.608 52.2695 1.928C52.7815 2.152 53.2455 2.44 53.6615 2.792C54.1095 3.144 54.4775 3.576 54.7655 4.088C55.0535 4.6 55.1975 5.176 55.1975 5.816C55.1975 6.776 54.8295 7.544 54.0935 8.12C53.3575 8.696 52.4935 8.984 51.5015 8.984C50.5415 8.984 49.7095 8.744 49.0055 8.264C48.3335 7.784 47.9975 7.032 47.9975 6.008C47.9975 5.208 48.2855 4.488 48.8615 3.848C49.4375 3.176 50.1735 2.76 51.0695 2.6C50.8455 2.344 50.4295 2.136 49.8215 1.976C49.2455 1.816 48.6055 1.736 47.9015 1.736C46.2375 1.736 44.8135 2.264 43.6295 3.32C42.4775 4.344 41.9015 5.912 41.9015 8.024C41.9015 8.76 42.0295 9.544 42.2855 10.376C42.5415 11.208 43.0375 12.056 43.7735 12.92C44.3175 12.792 44.8135 12.696 45.2615 12.632C45.7415 12.568 46.1415 12.536 46.4615 12.536C47.0375 12.536 47.4695 12.664 47.7575 12.92C48.0775 13.144 48.2375 13.448 48.2375 13.832C48.2375 14.12 48.1095 14.36 47.8535 14.552C47.5975 14.744 47.2775 14.84 46.8935 14.84C46.3495 14.84 45.7895 14.696 45.2135 14.408C44.6375 14.088 44.1735 13.816 43.8215 13.592C42.3175 14.36 41.0855 15.352 40.1255 16.568C39.1975 17.752 38.7335 19.352 38.7335 21.368C38.7335 23.48 39.3095 25.224 40.4615 26.6C41.6135 27.944 43.2295 28.968 45.3095 29.672C47.4215 30.344 49.9015 30.68 52.7495 30.68C54.3495 30.68 55.9335 30.504 57.5015 30.152C59.0695 29.8 60.4775 29.272 61.7255 28.568C63.0055 27.864 64.0295 27 64.7975 25.976C65.5655 24.92 65.9495 23.704 65.9495 22.328C65.9495 21.816 65.8695 21.176 65.7095 20.408C65.5815 19.608 65.2455 18.824 64.7015 18.056C64.1575 17.256 63.2615 16.6 62.0135 16.088L62.3495 15.656C64.0775 16.2 65.3895 17.224 66.2855 18.728C67.1815 20.232 67.6295 21.96 67.6295 23.912C67.6295 26.152 66.9415 28.168 65.5655 29.96C64.1895 31.72 62.2535 33.112 59.7575 34.136C57.2935 35.16 54.3975 35.672 51.0695 35.672C48.4135 35.672 45.9975 35.4 43.8215 34.856C41.6775 34.312 39.8215 33.528 38.2535 32.504C36.7175 31.448 35.5175 30.184 34.6535 28.712C33.8215 27.24 33.4055 25.576 33.4055 23.72C33.4055 21.928 33.7735 20.408 34.5095 19.16C35.2775 17.88 36.2055 16.84 37.2935 16.04C38.3815 15.208 39.4695 14.568 40.5575 14.12C41.6455 13.672 42.5095 13.368 43.1495 13.208C42.1575 12.792 41.2455 12.312 40.4135 11.768C39.6135 11.192 38.9575 10.52 38.4455 9.752C37.9655 8.984 37.7255 8.12 37.7255 7.16C37.7255 6.136 37.9975 5.24 38.5415 4.472C39.0855 3.672 39.8055 3.016 40.7015 2.504C41.6295 1.992 42.6535 1.608 43.7735 1.352C44.9255 1.064 46.0935 0.919998 47.2775 0.919998ZM66.1415 0.343997C68.4135 0.343997 70.2535 0.935997 71.6615 2.12C73.0695 3.304 73.7735 4.968 73.7735 7.112C73.7735 8.744 73.3735 10.12 72.5735 11.24C71.8055 12.36 70.6855 13.272 69.2135 13.976C67.7735 14.68 66.0455 15.24 64.0295 15.656C63.5815 15.816 63.0215 16.008 62.3495 16.232C61.6775 16.424 60.9895 16.616 60.2855 16.808C59.5815 17 58.8935 17.192 58.2215 17.384C57.5815 17.576 57.0215 17.736 56.5415 17.864C54.0455 18.408 52.1255 19.032 50.7815 19.736C49.4375 20.408 48.7655 21.336 48.7655 22.52C48.7655 23.32 49.0215 24.008 49.5335 24.584C50.0775 25.16 50.7495 25.608 51.5495 25.928C52.3495 26.248 53.1495 26.408 53.9495 26.408C54.1735 26.408 54.4135 26.392 54.6695 26.36C54.9255 26.296 55.1655 26.232 55.3895 26.168C55.6135 26.072 55.7735 25.992 55.8695 25.928C55.0695 25.672 54.4615 25.272 54.0455 24.728C53.6615 24.152 53.4695 23.496 53.4695 22.76C53.4695 21.736 53.8375 20.952 54.5735 20.408C55.3095 19.864 56.2215 19.592 57.3095 19.592C58.4615 19.592 59.3575 19.896 59.9975 20.504C60.6695 21.112 61.0055 21.896 61.0055 22.856C61.0055 23.848 60.7015 24.68 60.0935 25.352C59.4855 25.992 58.6695 26.472 57.6455 26.792C56.6215 27.08 55.4695 27.224 54.1895 27.224C52.9415 27.224 51.7575 27 50.6375 26.552C49.5495 26.104 48.6695 25.432 47.9975 24.536C47.3575 23.608 47.0375 22.456 47.0375 21.08C47.0375 19.384 47.4695 17.976 48.3335 16.856C49.1975 15.704 50.4295 14.76 52.0295 14.024C53.6615 13.256 55.5815 12.664 57.7895 12.248C58.4615 12.088 59.1975 11.912 59.9975 11.72C60.8295 11.496 61.6775 11.272 62.5415 11.048C63.4055 10.824 64.2055 10.584 64.9415 10.328C67.2455 9.752 69.0215 9.112 70.2695 8.408C71.5495 7.704 72.1895 6.76 72.1895 5.576C72.1895 4.712 71.9175 3.96 71.3735 3.32C70.8615 2.648 70.1895 2.136 69.3575 1.784C68.5255 1.4 67.6615 1.208 66.7655 1.208C66.4775 1.208 66.2055 1.224 65.9495 1.256C65.7255 1.288 65.5335 1.352 65.3735 1.448C66.1735 1.736 66.7655 2.168 67.1495 2.744C67.5335 3.32 67.7255 3.896 67.7255 4.472C67.7255 5.464 67.3575 6.232 66.6215 6.776C65.8855 7.288 64.9735 7.544 63.8855 7.544C62.7975 7.544 61.9015 7.272 61.1975 6.728C60.4935 6.152 60.1415 5.368 60.1415 4.376C60.1415 3.512 60.3815 2.792 60.8615 2.216C61.3735 1.608 62.0775 1.144 62.9735 0.823999C63.8695 0.503998 64.9255 0.343997 66.1415 0.343997Z" fill="#FABC3F"/>
</svg>
