<svg width="280" height="33" viewBox="0 0 280 33" fill="none" xmlns="http://www.w3.org/2000/svg">
<path d="M0.36 3.68C1.05333 3.70667 1.96 3.73333 3.08 3.76C4.2 3.78667 5.32 3.8 6.44 3.8C7.72 3.8 8.96 3.78667 10.16 3.76C11.36 3.73333 12.2133 3.72 12.72 3.72C16.0267 3.72 18.4933 4.30667 20.12 5.48C21.7733 6.65333 22.6 8.16 22.6 10C22.6 10.9333 22.32 11.88 21.76 12.84C21.2 13.8 20.3333 14.6533 19.16 15.4C17.9867 16.1467 16.4667 16.6933 14.6 17.04V17.12C17.1067 17.3067 19.0933 17.76 20.56 18.48C22.0267 19.2 23.08 20.0667 23.72 21.08C24.36 22.0933 24.68 23.1467 24.68 24.24C24.68 25.92 24.24 27.3333 23.36 28.48C22.48 29.6267 21.2133 30.5067 19.56 31.12C17.9067 31.7067 15.9333 32 13.64 32C13 32 12.08 31.9867 10.88 31.96C9.68 31.9067 8.22667 31.88 6.52 31.88C5.34667 31.88 4.2 31.8933 3.08 31.92C1.96 31.92 1.05333 31.9467 0.36 32V31.2C1.21333 31.1467 1.85333 31.04 2.28 30.88C2.70667 30.72 2.98667 30.4 3.12 29.92C3.28 29.44 3.36 28.72 3.36 27.76V7.92C3.36 6.93333 3.28 6.21333 3.12 5.76C2.98667 5.28 2.69333 4.96 2.24 4.8C1.81333 4.61333 1.18667 4.50667 0.36 4.48V3.68ZM12.2 4.48C11.16 4.48 10.48 4.70667 10.16 5.16C9.86667 5.61333 9.72 6.53333 9.72 7.92V27.76C9.72 28.6933 9.78667 29.4 9.92 29.88C10.08 30.36 10.3467 30.68 10.72 30.84C11.12 31 11.7067 31.08 12.48 31.08C14.4 31.08 15.8 30.48 16.68 29.28C17.5867 28.0533 18.04 26.32 18.04 24.08C18.04 22.0267 17.52 20.44 16.48 19.32C15.4667 18.2 13.7733 17.64 11.4 17.64H8C8 17.64 8 17.5333 8 17.32C8 17.08 8 16.96 8 16.96H11.44C12.6933 16.96 13.6533 16.6667 14.32 16.08C14.9867 15.4667 15.4533 14.6667 15.72 13.68C15.9867 12.6667 16.12 11.5867 16.12 10.44C16.12 8.46667 15.8133 6.98667 15.2 6C14.5867 4.98667 13.5867 4.48 12.2 4.48ZM34.7216 0.679998V28.28C34.7216 29.4 34.9082 30.16 35.2816 30.56C35.6816 30.96 36.3482 31.16 37.2816 31.16V32C36.7749 31.9733 36.0149 31.9467 35.0016 31.92C33.9882 31.8667 32.9616 31.84 31.9216 31.84C30.8816 31.84 29.8282 31.8667 28.7616 31.92C27.7216 31.9467 26.9349 31.9733 26.4016 32V31.16C27.3349 31.16 27.9882 30.96 28.3616 30.56C28.7616 30.16 28.9616 29.4 28.9616 28.28V5.48C28.9616 4.28 28.7749 3.4 28.4016 2.84C28.0549 2.25333 27.3882 1.96 26.4016 1.96V1.12C27.2549 1.2 28.0816 1.24 28.8816 1.24C29.9749 1.24 31.0149 1.2 32.0016 1.12C32.9882 1.01333 33.8949 0.866665 34.7216 0.679998ZM58.9034 10.88V27.64C58.9034 28.84 59.0901 29.7333 59.4634 30.32C59.8368 30.88 60.5034 31.16 61.4634 31.16V32C60.6368 31.92 59.8101 31.88 58.9834 31.88C57.8634 31.88 56.8234 31.92 55.8634 32C54.9034 32.08 53.9968 32.2267 53.1434 32.44V28.84C52.5034 30.1733 51.6101 31.1333 50.4634 31.72C49.3434 32.28 48.0901 32.56 46.7034 32.56C45.5834 32.56 44.6768 32.4133 43.9834 32.12C43.2901 31.8267 42.7434 31.4533 42.3434 31C41.8901 30.4933 41.5701 29.8267 41.3834 29C41.1968 28.1733 41.1034 27.1067 41.1034 25.8V15.68C41.1034 14.48 40.9168 13.6 40.5434 13.04C40.1968 12.4533 39.5301 12.16 38.5434 12.16V11.32C39.3968 11.4 40.2234 11.44 41.0234 11.44C42.1434 11.44 43.1834 11.4 44.1434 11.32C45.1301 11.2133 46.0368 11.0667 46.8634 10.88V27.44C46.8634 28.1067 46.9168 28.6933 47.0234 29.2C47.1568 29.7067 47.3968 30.1067 47.7434 30.4C48.0901 30.6667 48.5968 30.8 49.2634 30.8C49.9834 30.8 50.6234 30.6 51.1834 30.2C51.7701 29.8 52.2368 29.2533 52.5834 28.56C52.9568 27.84 53.1434 27.04 53.1434 26.16V15.68C53.1434 14.48 52.9568 13.6 52.5834 13.04C52.2368 12.4533 51.5701 12.16 50.5834 12.16V11.32C51.4368 11.4 52.2634 11.44 53.0634 11.44C54.1834 11.44 55.2234 11.4 56.1834 11.32C57.1701 11.2133 58.0768 11.0667 58.9034 10.88ZM71.1613 10.76C72.2813 10.76 73.2546 10.9067 74.0813 11.2C74.9346 11.4667 75.5479 11.7333 75.9213 12C76.8279 12.6133 77.3879 12.2133 77.6013 10.8H78.4413C78.3879 11.5467 78.3479 12.4667 78.3213 13.56C78.2946 14.6267 78.2813 16.0533 78.2813 17.84H77.4413C77.3079 16.8533 77.0546 15.88 76.6813 14.92C76.3079 13.96 75.7613 13.1733 75.0413 12.56C74.3479 11.9467 73.4413 11.64 72.3213 11.64C71.5479 11.64 70.8946 11.8667 70.3613 12.32C69.8279 12.7467 69.5613 13.3733 69.5613 14.2C69.5613 15 69.8013 15.7067 70.2813 16.32C70.7613 16.9067 71.3746 17.48 72.1213 18.04C72.8946 18.5733 73.6946 19.1467 74.5213 19.76C75.4013 20.4267 76.2013 21.0933 76.9213 21.76C77.6413 22.4 78.2146 23.1067 78.6413 23.88C79.0679 24.6533 79.2813 25.5733 79.2813 26.64C79.2813 27.84 78.9346 28.8933 78.2413 29.8C77.5479 30.68 76.6279 31.36 75.4813 31.84C74.3613 32.32 73.1079 32.56 71.7213 32.56C70.9213 32.56 70.2013 32.48 69.5613 32.32C68.9479 32.16 68.4146 31.96 67.9613 31.72C67.6146 31.56 67.2813 31.4133 66.9613 31.28C66.6679 31.12 66.3879 30.9867 66.1213 30.88C65.8546 30.8 65.6146 30.8933 65.4013 31.16C65.2146 31.4267 65.0679 31.8 64.9613 32.28H64.1213C64.1746 31.4267 64.2146 30.3867 64.2413 29.16C64.2679 27.9333 64.2813 26.3067 64.2813 24.28H65.1213C65.2813 25.72 65.5746 27 66.0013 28.12C66.4279 29.2133 67.0013 30.08 67.7213 30.72C68.4679 31.3333 69.4013 31.64 70.5213 31.64C70.9746 31.64 71.4146 31.5467 71.8413 31.36C72.2679 31.1733 72.6146 30.8667 72.8813 30.44C73.1746 30.0133 73.3213 29.4667 73.3213 28.8C73.3213 27.6267 72.9346 26.6533 72.1613 25.88C71.4146 25.1067 70.4546 24.2667 69.2813 23.36C68.4279 22.6667 67.6146 21.9867 66.8413 21.32C66.0946 20.6267 65.4813 19.88 65.0013 19.08C64.5213 18.2533 64.2813 17.32 64.2813 16.28C64.2813 15.08 64.6013 14.0667 65.2413 13.24C65.8813 12.4133 66.7213 11.8 67.7613 11.4C68.8279 10.9733 69.9613 10.76 71.1613 10.76ZM89.8378 0.719997V14.48C90.5045 13.0933 91.3978 12.1333 92.5178 11.6C93.6645 11.04 94.9445 10.76 96.3578 10.76C97.5045 10.76 98.4245 10.9067 99.1178 11.2C99.8111 11.4667 100.358 11.84 100.758 12.32C101.211 12.8267 101.531 13.48 101.718 14.28C101.931 15.08 102.038 16.16 102.038 17.52V28.28C102.038 29.4 102.224 30.16 102.598 30.56C102.998 30.96 103.664 31.16 104.598 31.16V32C104.091 31.9733 103.318 31.9467 102.278 31.92C101.264 31.8667 100.278 31.84 99.3178 31.84C98.2778 31.84 97.2645 31.8667 96.2778 31.92C95.3178 31.9467 94.5978 31.9733 94.1178 32V31.16C94.9178 31.16 95.4778 30.96 95.7978 30.56C96.1178 30.16 96.2778 29.4 96.2778 28.28V15.84C96.2778 15.1733 96.2111 14.6 96.0778 14.12C95.9445 13.6133 95.6911 13.2267 95.3178 12.96C94.9711 12.6667 94.4645 12.52 93.7978 12.52C93.0778 12.52 92.4111 12.72 91.7978 13.12C91.2111 13.4933 90.7311 14.0267 90.3578 14.72C90.0111 15.4133 89.8378 16.2133 89.8378 17.12V28.28C89.8378 29.4 89.9978 30.16 90.3178 30.56C90.6378 30.96 91.1978 31.16 91.9978 31.16V32C91.5178 31.9733 90.8111 31.9467 89.8778 31.92C88.9445 31.8667 87.9978 31.84 87.0378 31.84C85.9978 31.84 84.9445 31.8667 83.8778 31.92C82.8378 31.9467 82.0511 31.9733 81.5178 32V31.16C82.4511 31.16 83.1045 30.96 83.4778 30.56C83.8778 30.16 84.0778 29.4 84.0778 28.28V5.52C84.0778 4.32 83.8911 3.44 83.5178 2.88C83.1711 2.29333 82.5045 2 81.5178 2V1.16C82.3711 1.24 83.1978 1.28 83.9978 1.28C85.0911 1.28 86.1311 1.24 87.1178 1.16C88.1045 1.05333 89.0111 0.906665 89.8378 0.719997ZM161.063 3.68C161.756 3.70667 162.663 3.73333 163.783 3.76C164.903 3.78667 166.023 3.8 167.143 3.8C168.423 3.8 169.663 3.78667 170.863 3.76C172.063 3.73333 172.916 3.72 173.423 3.72C176.73 3.72 179.196 4.30667 180.823 5.48C182.476 6.65333 183.303 8.16 183.303 10C183.303 10.9333 183.023 11.88 182.463 12.84C181.903 13.8 181.036 14.6533 179.863 15.4C178.69 16.1467 177.17 16.6933 175.303 17.04V17.12C177.81 17.3067 179.796 17.76 181.263 18.48C182.73 19.2 183.783 20.0667 184.423 21.08C185.063 22.0933 185.383 23.1467 185.383 24.24C185.383 25.92 184.943 27.3333 184.063 28.48C183.183 29.6267 181.916 30.5067 180.263 31.12C178.61 31.7067 176.636 32 174.343 32C173.703 32 172.783 31.9867 171.583 31.96C170.383 31.9067 168.93 31.88 167.223 31.88C166.05 31.88 164.903 31.8933 163.783 31.92C162.663 31.92 161.756 31.9467 161.063 32V31.2C161.916 31.1467 162.556 31.04 162.983 30.88C163.41 30.72 163.69 30.4 163.823 29.92C163.983 29.44 164.063 28.72 164.063 27.76V7.92C164.063 6.93333 163.983 6.21333 163.823 5.76C163.69 5.28 163.396 4.96 162.943 4.8C162.516 4.61333 161.89 4.50667 161.063 4.48V3.68ZM172.903 4.48C171.863 4.48 171.183 4.70667 170.863 5.16C170.57 5.61333 170.423 6.53333 170.423 7.92V27.76C170.423 28.6933 170.49 29.4 170.623 29.88C170.783 30.36 171.05 30.68 171.423 30.84C171.823 31 172.41 31.08 173.183 31.08C175.103 31.08 176.503 30.48 177.383 29.28C178.29 28.0533 178.743 26.32 178.743 24.08C178.743 22.0267 178.223 20.44 177.183 19.32C176.17 18.2 174.476 17.64 172.103 17.64H168.703C168.703 17.64 168.703 17.5333 168.703 17.32C168.703 17.08 168.703 16.96 168.703 16.96H172.143C173.396 16.96 174.356 16.6667 175.023 16.08C175.69 15.4667 176.156 14.6667 176.423 13.68C176.69 12.6667 176.823 11.5867 176.823 10.44C176.823 8.46667 176.516 6.98667 175.903 6C175.29 4.98667 174.29 4.48 172.903 4.48ZM195.425 0.679998V28.28C195.425 29.4 195.611 30.16 195.985 30.56C196.385 30.96 197.051 31.16 197.985 31.16V32C197.478 31.9733 196.718 31.9467 195.705 31.92C194.691 31.8667 193.665 31.84 192.625 31.84C191.585 31.84 190.531 31.8667 189.465 31.92C188.425 31.9467 187.638 31.9733 187.105 32V31.16C188.038 31.16 188.691 30.96 189.065 30.56C189.465 30.16 189.665 29.4 189.665 28.28V5.48C189.665 4.28 189.478 3.4 189.105 2.84C188.758 2.25333 188.091 1.96 187.105 1.96V1.12C187.958 1.2 188.785 1.24 189.585 1.24C190.678 1.24 191.718 1.2 192.705 1.12C193.691 1.01333 194.598 0.866665 195.425 0.679998ZM209.616 10.76C211.563 10.76 213.269 11.12 214.736 11.84C216.203 12.56 217.349 13.72 218.176 15.32C219.003 16.92 219.416 19.04 219.416 21.68C219.416 24.32 219.003 26.44 218.176 28.04C217.349 29.6133 216.203 30.76 214.736 31.48C213.269 32.2 211.563 32.56 209.616 32.56C207.723 32.56 206.029 32.2 204.536 31.48C203.069 30.76 201.909 29.6133 201.056 28.04C200.229 26.44 199.816 24.32 199.816 21.68C199.816 19.04 200.229 16.92 201.056 15.32C201.909 13.72 203.069 12.56 204.536 11.84C206.029 11.12 207.723 10.76 209.616 10.76ZM209.616 11.56C208.549 11.56 207.656 12.36 206.936 13.96C206.216 15.5333 205.856 18.1067 205.856 21.68C205.856 25.2533 206.216 27.8267 206.936 29.4C207.656 30.9733 208.549 31.76 209.616 31.76C210.709 31.76 211.603 30.9733 212.296 29.4C213.016 27.8267 213.376 25.2533 213.376 21.68C213.376 18.1067 213.016 15.5333 212.296 13.96C211.603 12.36 210.709 11.56 209.616 11.56ZM232.233 10.76C234.18 10.76 235.886 11.12 237.353 11.84C238.82 12.56 239.966 13.72 240.793 15.32C241.62 16.92 242.033 19.04 242.033 21.68C242.033 24.32 241.62 26.44 240.793 28.04C239.966 29.6133 238.82 30.76 237.353 31.48C235.886 32.2 234.18 32.56 232.233 32.56C230.34 32.56 228.646 32.2 227.153 31.48C225.686 30.76 224.526 29.6133 223.673 28.04C222.846 26.44 222.433 24.32 222.433 21.68C222.433 19.04 222.846 16.92 223.673 15.32C224.526 13.72 225.686 12.56 227.153 11.84C228.646 11.12 230.34 10.76 232.233 10.76ZM232.233 11.56C231.166 11.56 230.273 12.36 229.553 13.96C228.833 15.5333 228.473 18.1067 228.473 21.68C228.473 25.2533 228.833 27.8267 229.553 29.4C230.273 30.9733 231.166 31.76 232.233 31.76C233.326 31.76 234.22 30.9733 234.913 29.4C235.633 27.8267 235.993 25.2533 235.993 21.68C235.993 18.1067 235.633 15.5333 234.913 13.96C234.22 12.36 233.326 11.56 232.233 11.56ZM259.05 10.76C260.17 10.76 261.077 10.9067 261.77 11.2C262.464 11.4667 263.024 11.84 263.45 12.32C263.877 12.8267 264.184 13.4933 264.37 14.32C264.557 15.12 264.65 16.1867 264.65 17.52V28.28C264.65 29.4 264.824 30.16 265.17 30.56C265.517 30.96 266.117 31.16 266.97 31.16V32C266.49 31.9733 265.757 31.9467 264.77 31.92C263.81 31.8667 262.864 31.84 261.93 31.84C260.97 31.84 260.024 31.8667 259.09 31.92C258.157 31.9467 257.45 31.9733 256.97 32V31.16C257.69 31.16 258.184 30.96 258.45 30.56C258.744 30.16 258.89 29.4 258.89 28.28V15.84C258.89 15.1733 258.837 14.6 258.73 14.12C258.624 13.6133 258.41 13.2267 258.09 12.96C257.797 12.6667 257.344 12.52 256.73 12.52C256.037 12.52 255.397 12.72 254.81 13.12C254.224 13.52 253.744 14.08 253.37 14.8C253.024 15.4933 252.85 16.28 252.85 17.16V28.28C252.85 29.4 252.997 30.16 253.29 30.56C253.584 30.96 254.077 31.16 254.77 31.16V32C254.344 31.9733 253.677 31.9467 252.77 31.92C251.89 31.8667 250.984 31.84 250.05 31.84C249.037 31.84 247.997 31.8667 246.93 31.92C245.864 31.9467 245.064 31.9733 244.53 32V31.16C245.464 31.16 246.117 30.96 246.49 30.56C246.89 30.16 247.09 29.4 247.09 28.28V15.68C247.09 14.48 246.904 13.6 246.53 13.04C246.184 12.4533 245.517 12.16 244.53 12.16V11.32C245.384 11.4 246.21 11.44 247.01 11.44C248.13 11.44 249.17 11.4 250.13 11.32C251.117 11.2133 252.024 11.0667 252.85 10.88V14.48C253.49 13.1467 254.357 12.2 255.45 11.64C256.544 11.0533 257.744 10.76 259.05 10.76ZM271.09 10.76C272.21 10.76 273.117 10.9067 273.81 11.2C274.504 11.4667 275.064 11.84 275.49 12.32C275.917 12.8267 276.224 13.4933 276.41 14.32C276.597 15.12 276.69 16.1867 276.69 17.52V28.28C276.69 29.4 276.877 30.16 277.25 30.56C277.65 30.96 278.317 31.16 279.25 31.16V32C278.744 31.9733 277.984 31.9467 276.97 31.92C275.957 31.8667 274.957 31.84 273.97 31.84C273.01 31.84 272.064 31.8667 271.13 31.92C270.197 31.9467 269.49 31.9733 269.01 32V31.16C269.73 31.16 270.224 30.96 270.49 30.56C270.784 30.16 270.93 29.4 270.93 28.28V15.84C270.93 15.1733 270.864 14.6 270.73 14.12C270.624 13.6133 270.397 13.2267 270.05 12.96C269.73 12.6667 269.224 12.52 268.53 12.52C267.837 12.52 267.197 12.7333 266.61 13.16C266.024 13.5867 265.544 14.16 265.17 14.88C264.824 15.6 264.637 16.4 264.61 17.28L264.41 14.84C265.13 13.24 266.077 12.16 267.25 11.6C268.45 11.04 269.73 10.76 271.09 10.76Z" fill="white"/>
<path d="M127.63 3.6C128.67 3.6 129.51 3.68 130.15 3.84C130.79 3.97333 131.336 4.17333 131.79 4.44C132.216 4.62667 132.603 4.86667 132.95 5.16C133.323 5.45333 133.63 5.81333 133.87 6.24C134.11 6.66667 134.23 7.14667 134.23 7.68C134.23 8.48 133.923 9.12 133.31 9.6C132.696 10.08 131.976 10.32 131.15 10.32C130.35 10.32 129.656 10.12 129.07 9.72C128.51 9.32 128.23 8.69333 128.23 7.84C128.23 7.17333 128.47 6.57333 128.95 6.04C129.43 5.48 130.043 5.13333 130.79 5C130.603 4.78667 130.256 4.61333 129.75 4.48C129.27 4.34667 128.736 4.28 128.15 4.28C126.763 4.28 125.576 4.72 124.59 5.6C123.63 6.45333 123.15 7.76 123.15 9.52C123.15 10.1333 123.256 10.7867 123.47 11.48C123.683 12.1733 124.096 12.88 124.71 13.6C125.163 13.4933 125.576 13.4133 125.95 13.36C126.35 13.3067 126.683 13.28 126.95 13.28C127.43 13.28 127.79 13.3867 128.03 13.6C128.296 13.7867 128.43 14.04 128.43 14.36C128.43 14.6 128.323 14.8 128.11 14.96C127.896 15.12 127.63 15.2 127.31 15.2C126.856 15.2 126.39 15.08 125.91 14.84C125.43 14.5733 125.043 14.3467 124.75 14.16C123.496 14.8 122.47 15.6267 121.67 16.64C120.896 17.6267 120.51 18.96 120.51 20.64C120.51 22.4 120.99 23.8533 121.95 25C122.91 26.12 124.256 26.9733 125.99 27.56C127.75 28.12 129.816 28.4 132.19 28.4C133.523 28.4 134.843 28.2533 136.15 27.96C137.456 27.6667 138.63 27.2267 139.67 26.64C140.736 26.0533 141.59 25.3333 142.23 24.48C142.87 23.6 143.19 22.5867 143.19 21.44C143.19 21.0133 143.123 20.48 142.99 19.84C142.883 19.1733 142.603 18.52 142.15 17.88C141.696 17.2133 140.95 16.6667 139.91 16.24L140.19 15.88C141.63 16.3333 142.723 17.1867 143.47 18.44C144.216 19.6933 144.59 21.1333 144.59 22.76C144.59 24.6267 144.016 26.3067 142.87 27.8C141.723 29.2667 140.11 30.4267 138.03 31.28C135.976 32.1333 133.563 32.56 130.79 32.56C128.576 32.56 126.563 32.3333 124.75 31.88C122.963 31.4267 121.416 30.7733 120.11 29.92C118.83 29.04 117.83 27.9867 117.11 26.76C116.416 25.5333 116.07 24.1467 116.07 22.6C116.07 21.1067 116.376 19.84 116.99 18.8C117.63 17.7333 118.403 16.8667 119.31 16.2C120.216 15.5067 121.123 14.9733 122.03 14.6C122.936 14.2267 123.656 13.9733 124.19 13.84C123.363 13.4933 122.603 13.0933 121.91 12.64C121.243 12.16 120.696 11.6 120.27 10.96C119.87 10.32 119.67 9.6 119.67 8.8C119.67 7.94666 119.896 7.2 120.35 6.56C120.803 5.89333 121.403 5.34667 122.15 4.92C122.923 4.49333 123.776 4.17333 124.71 3.96C125.67 3.72 126.643 3.6 127.63 3.6ZM143.35 3.12C145.243 3.12 146.776 3.61333 147.95 4.6C149.123 5.58667 149.71 6.97333 149.71 8.76C149.71 10.12 149.376 11.2667 148.71 12.2C148.07 13.1333 147.136 13.8933 145.91 14.48C144.71 15.0667 143.27 15.5333 141.59 15.88C141.216 16.0133 140.75 16.1733 140.19 16.36C139.63 16.52 139.056 16.68 138.47 16.84C137.883 17 137.31 17.16 136.75 17.32C136.216 17.48 135.75 17.6133 135.35 17.72C133.27 18.1733 131.67 18.6933 130.55 19.28C129.43 19.84 128.87 20.6133 128.87 21.6C128.87 22.2667 129.083 22.84 129.51 23.32C129.963 23.8 130.523 24.1733 131.19 24.44C131.856 24.7067 132.523 24.84 133.19 24.84C133.376 24.84 133.576 24.8267 133.79 24.8C134.003 24.7467 134.203 24.6933 134.39 24.64C134.576 24.56 134.71 24.4933 134.79 24.44C134.123 24.2267 133.616 23.8933 133.27 23.44C132.95 22.96 132.79 22.4133 132.79 21.8C132.79 20.9467 133.096 20.2933 133.71 19.84C134.323 19.3867 135.083 19.16 135.99 19.16C136.95 19.16 137.696 19.4133 138.23 19.92C138.79 20.4267 139.07 21.08 139.07 21.88C139.07 22.7067 138.816 23.4 138.31 23.96C137.803 24.4933 137.123 24.8933 136.27 25.16C135.416 25.4 134.456 25.52 133.39 25.52C132.35 25.52 131.363 25.3333 130.43 24.96C129.523 24.5867 128.79 24.0267 128.23 23.28C127.696 22.5067 127.43 21.5467 127.43 20.4C127.43 18.9867 127.79 17.8133 128.51 16.88C129.23 15.92 130.256 15.1333 131.59 14.52C132.95 13.88 134.55 13.3867 136.39 13.04C136.95 12.9067 137.563 12.76 138.23 12.6C138.923 12.4133 139.63 12.2267 140.35 12.04C141.07 11.8533 141.736 11.6533 142.35 11.44C144.27 10.96 145.75 10.4267 146.79 9.84C147.856 9.25333 148.39 8.46667 148.39 7.48C148.39 6.76 148.163 6.13333 147.71 5.6C147.283 5.04 146.723 4.61333 146.03 4.32C145.336 4 144.616 3.84 143.87 3.84C143.63 3.84 143.403 3.85333 143.19 3.88C143.003 3.90667 142.843 3.96 142.71 4.04C143.376 4.28 143.87 4.64 144.19 5.12C144.51 5.6 144.67 6.08 144.67 6.56C144.67 7.38667 144.363 8.02667 143.75 8.48C143.136 8.90667 142.376 9.12 141.47 9.12C140.563 9.12 139.816 8.89333 139.23 8.44C138.643 7.96 138.35 7.30667 138.35 6.48C138.35 5.76 138.55 5.16 138.95 4.68C139.376 4.17333 139.963 3.78667 140.71 3.52C141.456 3.25333 142.336 3.12 143.35 3.12Z" fill="#FABC3F"/>
</svg>
