<svg width="210" height="24" viewBox="0 0 210 24" fill="none" xmlns="http://www.w3.org/2000/svg">
<path d="M0.0200001 2.26C0.54 2.28 1.22 2.3 2.06 2.32C2.9 2.34 3.74 2.35 4.58 2.35C5.54 2.35 6.47 2.34 7.37 2.32C8.27 2.3 8.91 2.29 9.29 2.29C11.77 2.29 13.62 2.73 14.84 3.61C16.08 4.49 16.7 5.62 16.7 7C16.7 7.7 16.49 8.41 16.07 9.13C15.65 9.85 15 10.49 14.12 11.05C13.24 11.61 12.1 12.02 10.7 12.28V12.34C12.58 12.48 14.07 12.82 15.17 13.36C16.27 13.9 17.06 14.55 17.54 15.31C18.02 16.07 18.26 16.86 18.26 17.68C18.26 18.94 17.93 20 17.27 20.86C16.61 21.72 15.66 22.38 14.42 22.84C13.18 23.28 11.7 23.5 9.98 23.5C9.5 23.5 8.81 23.49 7.91 23.47C7.01 23.43 5.92 23.41 4.64 23.41C3.76 23.41 2.9 23.42 2.06 23.44C1.22 23.44 0.54 23.46 0.0200001 23.5V22.9C0.66 22.86 1.14 22.78 1.46 22.66C1.78 22.54 1.99 22.3 2.09 21.94C2.21 21.58 2.27 21.04 2.27 20.32V5.44C2.27 4.7 2.21 4.16 2.09 3.82C1.99 3.46 1.77 3.22 1.43 3.1C1.11 2.96 0.64 2.88 0.0200001 2.86V2.26ZM8.9 2.86C8.12 2.86 7.61 3.03 7.37 3.37C7.15 3.71 7.04 4.4 7.04 5.44V20.32C7.04 21.02 7.09 21.55 7.19 21.91C7.31 22.27 7.51 22.51 7.79 22.63C8.09 22.75 8.53 22.81 9.11 22.81C10.55 22.81 11.6 22.36 12.26 21.46C12.94 20.54 13.28 19.24 13.28 17.56C13.28 16.02 12.89 14.83 12.11 13.99C11.35 13.15 10.08 12.73 8.3 12.73H5.75C5.75 12.73 5.75 12.65 5.75 12.49C5.75 12.31 5.75 12.22 5.75 12.22H8.33C9.27 12.22 9.99 12 10.49 11.56C10.99 11.1 11.34 10.5 11.54 9.76C11.74 9 11.84 8.19 11.84 7.33C11.84 5.85 11.61 4.74 11.15 4C10.69 3.24 9.94 2.86 8.9 2.86ZM25.7912 0.00999844V20.71C25.7912 21.55 25.9312 22.12 26.2112 22.42C26.5112 22.72 27.0112 22.87 27.7112 22.87V23.5C27.3312 23.48 26.7612 23.46 26.0012 23.44C25.2412 23.4 24.4712 23.38 23.6912 23.38C22.9112 23.38 22.1212 23.4 21.3212 23.44C20.5412 23.46 19.9512 23.48 19.5512 23.5V22.87C20.2512 22.87 20.7412 22.72 21.0212 22.42C21.3212 22.12 21.4712 21.55 21.4712 20.71V3.61C21.4712 2.71 21.3312 2.05 21.0512 1.63C20.7912 1.19 20.2912 0.969999 19.5512 0.969999V0.34C20.1912 0.399999 20.8112 0.429998 21.4112 0.429998C22.2312 0.429998 23.0112 0.399999 23.7512 0.34C24.4912 0.259999 25.1712 0.149999 25.7912 0.00999844ZM43.9276 7.66V20.23C43.9276 21.13 44.0676 21.8 44.3476 22.24C44.6276 22.66 45.1276 22.87 45.8476 22.87V23.5C45.2276 23.44 44.6076 23.41 43.9876 23.41C43.1476 23.41 42.3676 23.44 41.6476 23.5C40.9276 23.56 40.2476 23.67 39.6076 23.83V21.13C39.1276 22.13 38.4576 22.85 37.5976 23.29C36.7576 23.71 35.8176 23.92 34.7776 23.92C33.9376 23.92 33.2576 23.81 32.7376 23.59C32.2176 23.37 31.8076 23.09 31.5076 22.75C31.1676 22.37 30.9276 21.87 30.7876 21.25C30.6476 20.63 30.5776 19.83 30.5776 18.85V11.26C30.5776 10.36 30.4376 9.7 30.1576 9.28C29.8976 8.84 29.3976 8.62 28.6576 8.62V7.99C29.2976 8.05 29.9176 8.08 30.5176 8.08C31.3576 8.08 32.1376 8.05 32.8576 7.99C33.5976 7.91 34.2776 7.8 34.8976 7.66V20.08C34.8976 20.58 34.9376 21.02 35.0176 21.4C35.1176 21.78 35.2976 22.08 35.5576 22.3C35.8176 22.5 36.1976 22.6 36.6976 22.6C37.2376 22.6 37.7176 22.45 38.1376 22.15C38.5776 21.85 38.9276 21.44 39.1876 20.92C39.4676 20.38 39.6076 19.78 39.6076 19.12V11.26C39.6076 10.36 39.4676 9.7 39.1876 9.28C38.9276 8.84 38.4276 8.62 37.6876 8.62V7.99C38.3276 8.05 38.9476 8.08 39.5476 8.08C40.3876 8.08 41.1676 8.05 41.8876 7.99C42.6276 7.91 43.3076 7.8 43.9276 7.66ZM53.1209 7.57C53.9609 7.57 54.6909 7.68 55.3109 7.9C55.9509 8.1 56.4109 8.3 56.6909 8.5C57.3709 8.96 57.7909 8.66 57.9509 7.6H58.5809C58.5409 8.16 58.5109 8.85 58.4909 9.67C58.4709 10.47 58.4609 11.54 58.4609 12.88H57.8309C57.7309 12.14 57.5409 11.41 57.2609 10.69C56.9809 9.97 56.5709 9.38 56.0309 8.92C55.5109 8.46 54.8309 8.23 53.9909 8.23C53.4109 8.23 52.9209 8.4 52.5209 8.74C52.1209 9.06 51.9209 9.53 51.9209 10.15C51.9209 10.75 52.1009 11.28 52.4609 11.74C52.8209 12.18 53.2809 12.61 53.8409 13.03C54.4209 13.43 55.0209 13.86 55.6409 14.32C56.3009 14.82 56.9009 15.32 57.4409 15.82C57.9809 16.3 58.4109 16.83 58.7309 17.41C59.0509 17.99 59.2109 18.68 59.2109 19.48C59.2109 20.38 58.9509 21.17 58.4309 21.85C57.9109 22.51 57.2209 23.02 56.3609 23.38C55.5209 23.74 54.5809 23.92 53.5409 23.92C52.9409 23.92 52.4009 23.86 51.9209 23.74C51.4609 23.62 51.0609 23.47 50.7209 23.29C50.4609 23.17 50.2109 23.06 49.9709 22.96C49.7509 22.84 49.5409 22.74 49.3409 22.66C49.1409 22.6 48.9609 22.67 48.8009 22.87C48.6609 23.07 48.5509 23.35 48.4709 23.71H47.8409C47.8809 23.07 47.9109 22.29 47.9309 21.37C47.9509 20.45 47.9609 19.23 47.9609 17.71H48.5909C48.7109 18.79 48.9309 19.75 49.2509 20.59C49.5709 21.41 50.0009 22.06 50.5409 22.54C51.1009 23 51.8009 23.23 52.6409 23.23C52.9809 23.23 53.3109 23.16 53.6309 23.02C53.9509 22.88 54.2109 22.65 54.4109 22.33C54.6309 22.01 54.7409 21.6 54.7409 21.1C54.7409 20.22 54.4509 19.49 53.8709 18.91C53.3109 18.33 52.5909 17.7 51.7109 17.02C51.0709 16.5 50.4609 15.99 49.8809 15.49C49.3209 14.97 48.8609 14.41 48.5009 13.81C48.1409 13.19 47.9609 12.49 47.9609 11.71C47.9609 10.81 48.2009 10.05 48.6809 9.43C49.1609 8.81 49.7909 8.35 50.5709 8.05C51.3709 7.73 52.2209 7.57 53.1209 7.57ZM67.1284 0.0399981V10.36C67.6284 9.32 68.2984 8.6 69.1384 8.2C69.9984 7.78 70.9584 7.57 72.0184 7.57C72.8784 7.57 73.5684 7.68 74.0884 7.9C74.6084 8.1 75.0184 8.38 75.3184 8.74C75.6584 9.12 75.8984 9.61 76.0384 10.21C76.1984 10.81 76.2784 11.62 76.2784 12.64V20.71C76.2784 21.55 76.4184 22.12 76.6984 22.42C76.9984 22.72 77.4984 22.87 78.1984 22.87V23.5C77.8184 23.48 77.2384 23.46 76.4584 23.44C75.6984 23.4 74.9584 23.38 74.2384 23.38C73.4584 23.38 72.6984 23.4 71.9584 23.44C71.2384 23.46 70.6984 23.48 70.3384 23.5V22.87C70.9384 22.87 71.3584 22.72 71.5984 22.42C71.8384 22.12 71.9584 21.55 71.9584 20.71V11.38C71.9584 10.88 71.9084 10.45 71.8084 10.09C71.7084 9.71 71.5184 9.42 71.2384 9.22C70.9784 9 70.5984 8.89 70.0984 8.89C69.5584 8.89 69.0584 9.04 68.5984 9.34C68.1584 9.62 67.7984 10.02 67.5184 10.54C67.2584 11.06 67.1284 11.66 67.1284 12.34V20.71C67.1284 21.55 67.2484 22.12 67.4884 22.42C67.7284 22.72 68.1484 22.87 68.7484 22.87V23.5C68.3884 23.48 67.8584 23.46 67.1584 23.44C66.4584 23.4 65.7484 23.38 65.0284 23.38C64.2484 23.38 63.4584 23.4 62.6584 23.44C61.8784 23.46 61.2884 23.48 60.8884 23.5V22.87C61.5884 22.87 62.0784 22.72 62.3584 22.42C62.6584 22.12 62.8084 21.55 62.8084 20.71V3.64C62.8084 2.74 62.6684 2.08 62.3884 1.66C62.1284 1.22 61.6284 0.999998 60.8884 0.999998V0.369999C61.5284 0.43 62.1484 0.46 62.7484 0.46C63.5684 0.46 64.3484 0.43 65.0884 0.369999C65.8284 0.289999 66.5084 0.179999 67.1284 0.0399981ZM120.547 2.26C121.067 2.28 121.747 2.3 122.587 2.32C123.427 2.34 124.267 2.35 125.107 2.35C126.067 2.35 126.997 2.34 127.897 2.32C128.797 2.3 129.437 2.29 129.817 2.29C132.297 2.29 134.147 2.73 135.367 3.61C136.607 4.49 137.227 5.62 137.227 7C137.227 7.7 137.017 8.41 136.597 9.13C136.177 9.85 135.527 10.49 134.647 11.05C133.767 11.61 132.627 12.02 131.227 12.28V12.34C133.107 12.48 134.597 12.82 135.697 13.36C136.797 13.9 137.587 14.55 138.067 15.31C138.547 16.07 138.787 16.86 138.787 17.68C138.787 18.94 138.457 20 137.797 20.86C137.137 21.72 136.187 22.38 134.947 22.84C133.707 23.28 132.227 23.5 130.507 23.5C130.027 23.5 129.337 23.49 128.437 23.47C127.537 23.43 126.447 23.41 125.167 23.41C124.287 23.41 123.427 23.42 122.587 23.44C121.747 23.44 121.067 23.46 120.547 23.5V22.9C121.187 22.86 121.667 22.78 121.987 22.66C122.307 22.54 122.517 22.3 122.617 21.94C122.737 21.58 122.797 21.04 122.797 20.32V5.44C122.797 4.7 122.737 4.16 122.617 3.82C122.517 3.46 122.297 3.22 121.957 3.1C121.637 2.96 121.167 2.88 120.547 2.86V2.26ZM129.427 2.86C128.647 2.86 128.137 3.03 127.897 3.37C127.677 3.71 127.567 4.4 127.567 5.44V20.32C127.567 21.02 127.617 21.55 127.717 21.91C127.837 22.27 128.037 22.51 128.317 22.63C128.617 22.75 129.057 22.81 129.637 22.81C131.077 22.81 132.127 22.36 132.787 21.46C133.467 20.54 133.807 19.24 133.807 17.56C133.807 16.02 133.417 14.83 132.637 13.99C131.877 13.15 130.607 12.73 128.827 12.73H126.277C126.277 12.73 126.277 12.65 126.277 12.49C126.277 12.31 126.277 12.22 126.277 12.22H128.857C129.797 12.22 130.517 12 131.017 11.56C131.517 11.1 131.867 10.5 132.067 9.76C132.267 9 132.367 8.19 132.367 7.33C132.367 5.85 132.137 4.74 131.677 4C131.217 3.24 130.467 2.86 129.427 2.86ZM146.319 0.00999844V20.71C146.319 21.55 146.459 22.12 146.739 22.42C147.039 22.72 147.539 22.87 148.239 22.87V23.5C147.859 23.48 147.289 23.46 146.529 23.44C145.769 23.4 144.999 23.38 144.219 23.38C143.439 23.38 142.649 23.4 141.849 23.44C141.069 23.46 140.479 23.48 140.079 23.5V22.87C140.779 22.87 141.269 22.72 141.549 22.42C141.849 22.12 141.999 21.55 141.999 20.71V3.61C141.999 2.71 141.859 2.05 141.579 1.63C141.319 1.19 140.819 0.969999 140.079 0.969999V0.34C140.719 0.399999 141.339 0.429998 141.939 0.429998C142.759 0.429998 143.539 0.399999 144.279 0.34C145.019 0.259999 145.699 0.149999 146.319 0.00999844ZM156.962 7.57C158.422 7.57 159.702 7.84 160.802 8.38C161.902 8.92 162.762 9.79 163.382 10.99C164.002 12.19 164.312 13.78 164.312 15.76C164.312 17.74 164.002 19.33 163.382 20.53C162.762 21.71 161.902 22.57 160.802 23.11C159.702 23.65 158.422 23.92 156.962 23.92C155.542 23.92 154.272 23.65 153.152 23.11C152.052 22.57 151.182 21.71 150.542 20.53C149.922 19.33 149.612 17.74 149.612 15.76C149.612 13.78 149.922 12.19 150.542 10.99C151.182 9.79 152.052 8.92 153.152 8.38C154.272 7.84 155.542 7.57 156.962 7.57ZM156.962 8.17C156.162 8.17 155.492 8.77 154.952 9.97C154.412 11.15 154.142 13.08 154.142 15.76C154.142 18.44 154.412 20.37 154.952 21.55C155.492 22.73 156.162 23.32 156.962 23.32C157.782 23.32 158.452 22.73 158.972 21.55C159.512 20.37 159.782 18.44 159.782 15.76C159.782 13.08 159.512 11.15 158.972 9.97C158.452 8.77 157.782 8.17 156.962 8.17ZM173.925 7.57C175.385 7.57 176.665 7.84 177.765 8.38C178.865 8.92 179.725 9.79 180.345 10.99C180.965 12.19 181.275 13.78 181.275 15.76C181.275 17.74 180.965 19.33 180.345 20.53C179.725 21.71 178.865 22.57 177.765 23.11C176.665 23.65 175.385 23.92 173.925 23.92C172.505 23.92 171.235 23.65 170.115 23.11C169.015 22.57 168.145 21.71 167.505 20.53C166.885 19.33 166.575 17.74 166.575 15.76C166.575 13.78 166.885 12.19 167.505 10.99C168.145 9.79 169.015 8.92 170.115 8.38C171.235 7.84 172.505 7.57 173.925 7.57ZM173.925 8.17C173.125 8.17 172.455 8.77 171.915 9.97C171.375 11.15 171.105 13.08 171.105 15.76C171.105 18.44 171.375 20.37 171.915 21.55C172.455 22.73 173.125 23.32 173.925 23.32C174.745 23.32 175.415 22.73 175.935 21.55C176.475 20.37 176.745 18.44 176.745 15.76C176.745 13.08 176.475 11.15 175.935 9.97C175.415 8.77 174.745 8.17 173.925 8.17ZM194.038 7.57C194.878 7.57 195.558 7.68 196.078 7.9C196.598 8.1 197.018 8.38 197.338 8.74C197.658 9.12 197.888 9.62 198.028 10.24C198.168 10.84 198.238 11.64 198.238 12.64V20.71C198.238 21.55 198.368 22.12 198.628 22.42C198.888 22.72 199.338 22.87 199.978 22.87V23.5C199.618 23.48 199.068 23.46 198.328 23.44C197.608 23.4 196.898 23.38 196.198 23.38C195.478 23.38 194.768 23.4 194.068 23.44C193.368 23.46 192.838 23.48 192.478 23.5V22.87C193.018 22.87 193.388 22.72 193.588 22.42C193.808 22.12 193.918 21.55 193.918 20.71V11.38C193.918 10.88 193.878 10.45 193.798 10.09C193.718 9.71 193.558 9.42 193.318 9.22C193.098 9 192.758 8.89 192.298 8.89C191.778 8.89 191.298 9.04 190.858 9.34C190.418 9.64 190.058 10.06 189.778 10.6C189.518 11.12 189.388 11.71 189.388 12.37V20.71C189.388 21.55 189.498 22.12 189.718 22.42C189.938 22.72 190.308 22.87 190.828 22.87V23.5C190.508 23.48 190.008 23.46 189.328 23.44C188.668 23.4 187.988 23.38 187.288 23.38C186.528 23.38 185.748 23.4 184.948 23.44C184.148 23.46 183.548 23.48 183.148 23.5V22.87C183.848 22.87 184.338 22.72 184.618 22.42C184.918 22.12 185.068 21.55 185.068 20.71V11.26C185.068 10.36 184.928 9.7 184.648 9.28C184.388 8.84 183.888 8.62 183.148 8.62V7.99C183.788 8.05 184.408 8.08 185.008 8.08C185.848 8.08 186.628 8.05 187.348 7.99C188.088 7.91 188.768 7.8 189.388 7.66V10.36C189.868 9.36 190.518 8.65 191.338 8.23C192.158 7.79 193.058 7.57 194.038 7.57ZM203.068 7.57C203.908 7.57 204.588 7.68 205.108 7.9C205.628 8.1 206.048 8.38 206.368 8.74C206.688 9.12 206.918 9.62 207.058 10.24C207.198 10.84 207.268 11.64 207.268 12.64V20.71C207.268 21.55 207.408 22.12 207.688 22.42C207.988 22.72 208.488 22.87 209.188 22.87V23.5C208.808 23.48 208.238 23.46 207.478 23.44C206.718 23.4 205.968 23.38 205.228 23.38C204.508 23.38 203.798 23.4 203.098 23.44C202.398 23.46 201.868 23.48 201.508 23.5V22.87C202.048 22.87 202.418 22.72 202.618 22.42C202.838 22.12 202.948 21.55 202.948 20.71V11.38C202.948 10.88 202.898 10.45 202.798 10.09C202.718 9.71 202.548 9.42 202.288 9.22C202.048 9 201.668 8.89 201.148 8.89C200.628 8.89 200.148 9.05 199.708 9.37C199.268 9.69 198.908 10.12 198.628 10.66C198.368 11.2 198.228 11.8 198.208 12.46L198.058 10.63C198.598 9.43 199.308 8.62 200.188 8.2C201.088 7.78 202.048 7.57 203.068 7.57Z" fill="#301E18"/>
<path d="M95.4723 2.2C96.2523 2.2 96.8823 2.26 97.3623 2.38C97.8423 2.48 98.2523 2.63 98.5923 2.83C98.9123 2.97 99.2023 3.15 99.4623 3.37C99.7423 3.59 99.9723 3.86 100.152 4.18C100.332 4.5 100.422 4.86 100.422 5.26C100.422 5.86 100.192 6.34 99.7323 6.7C99.2723 7.06 98.7323 7.24 98.1123 7.24C97.5123 7.24 96.9923 7.09 96.5523 6.79C96.1323 6.49 95.9223 6.02 95.9223 5.38C95.9223 4.88 96.1023 4.43 96.4623 4.03C96.8223 3.61 97.2823 3.35 97.8423 3.25C97.7023 3.09 97.4423 2.96 97.0623 2.86C96.7023 2.76 96.3023 2.71 95.8623 2.71C94.8223 2.71 93.9323 3.04 93.1923 3.7C92.4723 4.34 92.1123 5.32 92.1123 6.64C92.1123 7.1 92.1923 7.59 92.3523 8.11C92.5123 8.63 92.8223 9.16 93.2823 9.7C93.6223 9.62 93.9323 9.56 94.2123 9.52C94.5123 9.48 94.7623 9.46 94.9623 9.46C95.3223 9.46 95.5923 9.54 95.7723 9.7C95.9723 9.84 96.0723 10.03 96.0723 10.27C96.0723 10.45 95.9923 10.6 95.8323 10.72C95.6723 10.84 95.4723 10.9 95.2323 10.9C94.8923 10.9 94.5423 10.81 94.1823 10.63C93.8223 10.43 93.5323 10.26 93.3123 10.12C92.3723 10.6 91.6023 11.22 91.0023 11.98C90.4223 12.72 90.1323 13.72 90.1323 14.98C90.1323 16.3 90.4923 17.39 91.2123 18.25C91.9323 19.09 92.9423 19.73 94.2423 20.17C95.5623 20.59 97.1123 20.8 98.8923 20.8C99.8923 20.8 100.882 20.69 101.862 20.47C102.842 20.25 103.722 19.92 104.502 19.48C105.302 19.04 105.942 18.5 106.422 17.86C106.902 17.2 107.142 16.44 107.142 15.58C107.142 15.26 107.092 14.86 106.992 14.38C106.912 13.88 106.702 13.39 106.362 12.91C106.022 12.41 105.462 12 104.682 11.68L104.892 11.41C105.972 11.75 106.792 12.39 107.352 13.33C107.912 14.27 108.192 15.35 108.192 16.57C108.192 17.97 107.762 19.23 106.902 20.35C106.042 21.45 104.832 22.32 103.272 22.96C101.732 23.6 99.9223 23.92 97.8423 23.92C96.1823 23.92 94.6723 23.75 93.3123 23.41C91.9723 23.07 90.8123 22.58 89.8323 21.94C88.8723 21.28 88.1223 20.49 87.5823 19.57C87.0623 18.65 86.8023 17.61 86.8023 16.45C86.8023 15.33 87.0323 14.38 87.4923 13.6C87.9723 12.8 88.5523 12.15 89.2323 11.65C89.9123 11.13 90.5923 10.73 91.2723 10.45C91.9523 10.17 92.4923 9.98 92.8923 9.88C92.2723 9.62 91.7023 9.32 91.1823 8.98C90.6823 8.62 90.2723 8.2 89.9523 7.72C89.6523 7.24 89.5023 6.7 89.5023 6.1C89.5023 5.46 89.6723 4.9 90.0123 4.42C90.3523 3.92 90.8023 3.51 91.3623 3.19C91.9423 2.87 92.5823 2.63 93.2823 2.47C94.0023 2.29 94.7323 2.2 95.4723 2.2ZM107.262 1.84C108.682 1.84 109.832 2.21 110.712 2.95C111.592 3.69 112.032 4.73 112.032 6.07C112.032 7.09 111.782 7.95 111.282 8.65C110.802 9.35 110.102 9.92 109.182 10.36C108.282 10.8 107.202 11.15 105.942 11.41C105.662 11.51 105.312 11.63 104.892 11.77C104.472 11.89 104.042 12.01 103.602 12.13C103.162 12.25 102.732 12.37 102.312 12.49C101.912 12.61 101.562 12.71 101.262 12.79C99.7023 13.13 98.5023 13.52 97.6623 13.96C96.8223 14.38 96.4023 14.96 96.4023 15.7C96.4023 16.2 96.5623 16.63 96.8823 16.99C97.2223 17.35 97.6423 17.63 98.1423 17.83C98.6423 18.03 99.1423 18.13 99.6423 18.13C99.7823 18.13 99.9323 18.12 100.092 18.1C100.252 18.06 100.402 18.02 100.542 17.98C100.682 17.92 100.782 17.87 100.842 17.83C100.342 17.67 99.9623 17.42 99.7023 17.08C99.4623 16.72 99.3423 16.31 99.3423 15.85C99.3423 15.21 99.5723 14.72 100.032 14.38C100.492 14.04 101.062 13.87 101.742 13.87C102.462 13.87 103.022 14.06 103.422 14.44C103.842 14.82 104.052 15.31 104.052 15.91C104.052 16.53 103.862 17.05 103.482 17.47C103.102 17.87 102.592 18.17 101.952 18.37C101.312 18.55 100.592 18.64 99.7923 18.64C99.0123 18.64 98.2723 18.5 97.5723 18.22C96.8923 17.94 96.3423 17.52 95.9223 16.96C95.5223 16.38 95.3223 15.66 95.3223 14.8C95.3223 13.74 95.5923 12.86 96.1323 12.16C96.6723 11.44 97.4423 10.85 98.4423 10.39C99.4623 9.91 100.662 9.54 102.042 9.28C102.462 9.18 102.922 9.07 103.422 8.95C103.942 8.81 104.472 8.67 105.012 8.53C105.552 8.39 106.052 8.24 106.512 8.08C107.952 7.72 109.062 7.32 109.842 6.88C110.642 6.44 111.042 5.85 111.042 5.11C111.042 4.57 110.872 4.1 110.532 3.7C110.212 3.28 109.792 2.96 109.272 2.74C108.752 2.5 108.212 2.38 107.652 2.38C107.472 2.38 107.302 2.39 107.142 2.41C107.002 2.43 106.882 2.47 106.782 2.53C107.282 2.71 107.652 2.98 107.892 3.34C108.132 3.7 108.252 4.06 108.252 4.42C108.252 5.04 108.022 5.52 107.562 5.86C107.102 6.18 106.532 6.34 105.852 6.34C105.172 6.34 104.612 6.17 104.172 5.83C103.732 5.47 103.512 4.98 103.512 4.36C103.512 3.82 103.662 3.37 103.962 3.01C104.282 2.63 104.722 2.34 105.282 2.14C105.842 1.94 106.502 1.84 107.262 1.84Z" fill="#FABC3F"/>
</svg>
