<svg class="animated" id="freepik_stories-mailbox" xmlns="http://www.w3.org/2000/svg" viewBox="0 0 500 500" version="1.1" xmlns:xlink="http://www.w3.org/1999/xlink" xmlns:svgjs="http://svgjs.com/svgjs"><style>svg#freepik_stories-mailbox:not(.animated) .animable {opacity: 0;}svg#freepik_stories-mailbox.animated #freepik--Character--inject-101 {animation: 3s Infinite  linear floating;animation-delay: 0s;}svg#freepik_stories-mailbox.animated #freepik--Mailbox--inject-101 {animation: 3s Infinite  linear floating;animation-delay: -1.5s;}            @keyframes floating {                0% {                    opacity: 1;                    transform: translateY(0px);                }                50% {                    transform: translateY(-10px);                }                100% {                    opacity: 1;                    transform: translateY(0px);                }            }        </style><g id="freepik--Shadow--inject-101" class="animable" style="transform-origin: 250px 416.24px;"><ellipse cx="250" cy="416.24" rx="193.89" ry="11.32" style="fill: rgb(245, 245, 245); transform-origin: 250px 416.24px;" id="eld1dtb2xlwui" class="animable"></ellipse></g><g id="freepik--Character--inject-101" class="animable" style="transform-origin: 194.196px 265.913px;"><path d="M158.6,173c-.17,2.85-.5,5.47-.87,8.18s-.88,5.36-1.45,8A89.24,89.24,0,0,1,151.46,205l-.86,1.92-.22.48-.11.24c0,.08-.06.14-.14.31a8.3,8.3,0,0,1-1.13,1.69,6.49,6.49,0,0,1-4.11,2.18,8.37,8.37,0,0,1-3.52-.37,16.82,16.82,0,0,1-4.45-2.3,37.58,37.58,0,0,1-3.38-2.73,77.7,77.7,0,0,1-10.7-12.33l3.32-2.81c1.85,1.74,3.79,3.5,5.72,5.18s3.92,3.28,5.91,4.71a32.58,32.58,0,0,0,3,1.92,10.17,10.17,0,0,0,2.63,1.11c.31.06.51,0,.37,0a1.23,1.23,0,0,0-.73.34c-.07.06-.08.07-.07,0l.3-.79.65-1.72a100.76,100.76,0,0,0,3.82-14.54c.5-2.48.85-5,1.23-7.52s.64-5.1.86-7.49Z" style="fill: rgb(238, 193, 187); transform-origin: 140.72px 192.175px;" id="el23rnai0y2i3" class="animable"></path><path d="M152.63,162.56c-3.54.9-6,15.45-6,15.45l9.74,6.63S165.7,170,163,166.07,157.78,161.25,152.63,162.56Z" style="fill: rgb(73, 54, 40); transform-origin: 155.06px 173.318px;" id="elrenh4p0041" class="animable"></path><g id="elvl4fee3zsub"><path d="M152.63,162.56c-3.54.9-6,15.45-6,15.45l9.74,6.63S165.7,170,163,166.07,157.78,161.25,152.63,162.56Z" style="opacity: 0.3; transform-origin: 155.06px 173.318px;" class="animable"></path></g><polygon points="152.94 165.81 150.23 180.48 155.7 184.19 152.94 165.81" style="fill: rgb(73, 54, 40); transform-origin: 152.965px 175px;" id="el400gr8435zh" class="animable"></polygon><g id="elmb4athtuh4l"><polygon points="152.94 165.81 150.23 180.48 155.7 184.19 152.94 165.81" style="opacity: 0.5; transform-origin: 152.965px 175px;" class="animable"></polygon></g><path d="M126.26,190.71l-4.64-7.32L119,191.71s3.8,4,7.24,3Z" style="fill: rgb(238, 193, 187); transform-origin: 122.63px 189.13px;" id="elq98nj194vvb" class="animable"></path><polygon points="114.83 180.97 113 188.05 118.99 191.71 121.62 183.39 114.83 180.97" style="fill: rgb(238, 193, 187); transform-origin: 117.31px 186.34px;" id="elp39in7mpmtr" class="animable"></polygon><polygon points="171.76 407.48 163.18 407.48 162.6 387.61 171.18 387.61 171.76 407.48" style="fill: rgb(238, 193, 187); transform-origin: 167.18px 397.545px;" id="eltkepnaqg3td" class="animable"></polygon><polygon points="247.46 367.63 240.92 373.18 225.96 359.82 232.5 354.27 247.46 367.63" style="fill: rgb(238, 193, 187); transform-origin: 236.71px 363.725px;" id="elabyic1t382a" class="animable"></polygon><path d="M239.13,372.52l6.34-7.26a.67.67,0,0,1,.89-.13l6.47,4.19a1.37,1.37,0,0,1,.24,2c-2.25,2.49-3.46,3.58-6.25,6.77-1.72,2-4,5-6.39,7.72s-5.18.52-4.43-.82c3.33-6,2.53-8.13,2.58-11.09A2.26,2.26,0,0,1,239.13,372.52Z" style="fill: rgb(38, 50, 56); transform-origin: 244.637px 376.061px;" id="el1joqpos16rw" class="animable"></path><path d="M162.88,406.48h9.64a.69.69,0,0,1,.69.59l1.09,7.63a1.36,1.36,0,0,1-1.37,1.52c-3.36-.06-5-.25-9.22-.25-2.61,0-8,.27-11.6.27s-3.8-3.56-2.3-3.89c6.73-1.44,9.37-3.44,11.64-5.34A2.26,2.26,0,0,1,162.88,406.48Z" style="fill: rgb(38, 50, 56); transform-origin: 161.619px 411.36px;" id="el0l83a3zk1cw" class="animable"></path><polygon points="162.6 387.62 162.9 397.86 171.48 397.86 171.19 387.62 162.6 387.62" style="fill: rgb(219, 151, 146); transform-origin: 167.04px 392.74px;" id="el54eygs6rksy" class="animable"></polygon><polygon points="232.5 354.27 225.96 359.83 233.68 366.71 240.22 361.15 232.5 354.27" style="fill: rgb(219, 151, 146); transform-origin: 233.09px 360.49px;" id="elh4u9tduhbaf" class="animable"></polygon><path d="M158.78,123.83c5.79-8.61,19.67-11.47,28.31-3.75,11,9.83,4.33,29.1,21.24,24s32.75-3.88,32.84,4.87,10.42-2.36,22.58,6.62c24.62,18.17,5.79,64.9-15.86,47.05-14.2-11.7-19.17-16.72-26.25-7.8s-32.29,4.71-34.55-6.54S168.75,182.5,160,172.67,146.43,142.18,158.78,123.83Z" style="fill: rgb(38, 50, 56); transform-origin: 213.356px 161.099px;" id="el9pi5p6z54nj" class="animable"></path><path d="M152.63,162.56s-4.09,1.44,4.1,51.78h34.84c-.59-14.18-.6-22.92,6.18-52a103.63,103.63,0,0,0-14.8-1.94,109.79,109.79,0,0,0-15.82,0C160.33,161,152.63,162.56,152.63,162.56Z" style="fill: rgb(73, 54, 40); transform-origin: 174.679px 187.227px;" id="elnsm9uzvb2v" class="animable"></path><g id="elgo954nb2k8"><path d="M152.63,162.56s-4.09,1.44,4.1,51.78h34.84c-.59-14.18-.6-22.92,6.18-52a103.63,103.63,0,0,0-14.8-1.94,109.79,109.79,0,0,0-15.82,0C160.33,161,152.63,162.56,152.63,162.56Z" style="opacity: 0.3; transform-origin: 174.679px 187.227px;" class="animable"></path></g><path d="M181.38,142.55c-1,5.09-2,14.42,1.57,17.82,0,0-1.39,5.16-10.85,5.16-10.4,0-5-5.16-5-5.16,5.67-1.36,5.53-5.57,4.54-9.53Z" style="fill: rgb(238, 193, 187); transform-origin: 174.324px 154.04px;" id="el7wqzlvj2anj" class="animable"></path><path d="M177.42,145.93l-5.75,4.91a15.33,15.33,0,0,1,.49,2.81c2.17-.32,5.15-2.7,5.38-5A7.62,7.62,0,0,0,177.42,145.93Z" style="fill: rgb(219, 151, 146); transform-origin: 174.64px 149.79px;" id="elw9my4rzhbl" class="animable"></path><path d="M186.75,133.21c-2,8.28-2.66,11.83-7.65,15.37-7.5,5.34-17.23,1.07-17.75-7.63-.47-7.84,2.88-20.06,11.66-21.94A11.61,11.61,0,0,1,186.75,133.21Z" style="fill: rgb(238, 193, 187); transform-origin: 174.207px 134.836px;" id="el5og5u9446hm" class="animable"></path><path d="M156.73,214.34s-6.77,66.09-6.21,92.25c.59,27.22,10.56,89.28,10.56,89.28h11.6s-1.84-60.47-.81-87.2c1.12-29.13,10.37-94.33,10.37-94.33Z" style="fill: rgb(73, 54, 40); transform-origin: 166.364px 305.105px;" id="el18loy920h4j" class="animable"></path><g id="elx13y42ywbi"><path d="M156.73,214.34s-6.77,66.09-6.21,92.25c.59,27.22,10.56,89.28,10.56,89.28h11.6s-1.84-60.47-.81-87.2c1.12-29.13,10.37-94.33,10.37-94.33Z" style="opacity: 0.5; transform-origin: 166.364px 305.105px;" class="animable"></path></g><polygon points="173.68 396.29 160.07 396.29 159.07 391.95 174.32 391.42 173.68 396.29" style="fill: rgb(73, 54, 40); transform-origin: 166.695px 393.855px;" id="elehwmsfbeu0q" class="animable"></polygon><g id="elq2bz88h05te"><polygon points="173.68 396.29 160.07 396.29 159.07 391.95 174.32 391.42 173.68 396.29" style="fill: rgb(255, 255, 255); opacity: 0.3; transform-origin: 166.695px 393.855px;" class="animable"></polygon></g><path d="M171.75,230.79c-8.55,17.21-1.71,48.62,1.31,60.3,1.56-17.54,4.17-39,6.21-54.75C178,227.43,175.7,222.85,171.75,230.79Z" style="fill: rgb(73, 54, 40); transform-origin: 173.437px 258.895px;" id="elxzt44308c" class="animable"></path><g id="elgpuqsn1aj6v"><path d="M171.75,230.79c-8.55,17.21-1.71,48.62,1.31,60.3,1.56-17.54,4.17-39,6.21-54.75C178,227.43,175.7,222.85,171.75,230.79Z" style="opacity: 0.6; transform-origin: 173.437px 258.895px;" class="animable"></path></g><path d="M165.93,214.34s7.89,68.71,13.85,90.77c7.08,26.19,51,61.43,51,61.43l8.91-7.57s-31.86-38.29-37.27-52.08c-11.55-29.45-1.66-73.33-10.89-92.55Z" style="fill: rgb(73, 54, 40); transform-origin: 202.81px 290.44px;" id="elk0dpeotfw1r" class="animable"></path><g id="el4so6dbac8ag"><path d="M165.93,214.34s7.89,68.71,13.85,90.77c7.08,26.19,51,61.43,51,61.43l8.91-7.57s-31.86-38.29-37.27-52.08c-11.55-29.45-1.66-73.33-10.89-92.55Z" style="opacity: 0.5; transform-origin: 202.81px 290.44px;" class="animable"></path></g><polygon points="241.16 358.56 230.09 367.96 225.96 365.48 238.47 353.84 241.16 358.56" style="fill: rgb(73, 54, 40); transform-origin: 233.56px 360.9px;" id="els1hd9tpjdi" class="animable"></polygon><g id="elfyenxyee4ou"><polygon points="241.16 358.56 230.09 367.96 225.96 365.48 238.47 353.84 241.16 358.56" style="fill: rgb(255, 255, 255); opacity: 0.3; transform-origin: 233.56px 360.9px;" class="animable"></polygon></g><g id="eleag5y798xq"><ellipse cx="172.84" cy="133.16" rx="1.25" ry="0.82" style="fill: rgb(38, 50, 56); transform-origin: 172.84px 133.16px; transform: rotate(-79.96deg);" class="animable"></ellipse></g><path d="M165.94,131.94c-.12.68-.58,1.17-1,1.09s-.71-.7-.59-1.38.58-1.17,1-1.09S166.06,131.26,165.94,131.94Z" style="fill: rgb(38, 50, 56); transform-origin: 165.145px 131.795px;" id="elc67ztacaj27" class="animable"></path><path d="M165.54,130.63l-1.55-.76S164.6,131.3,165.54,130.63Z" style="fill: rgb(38, 50, 56); transform-origin: 164.765px 130.339px;" id="elnoyr4i6dd4" class="animable"></path><path d="M167.77,133.47a18.61,18.61,0,0,1-3.2,3.92,3,3,0,0,0,2.35.88Z" style="fill: rgb(212, 130, 125); transform-origin: 166.17px 135.874px;" id="elz3xkj56oter" class="animable"></path><path d="M170,141.49a6,6,0,0,1-1.16-.11.2.2,0,0,1-.16-.23.21.21,0,0,1,.23-.17,5.51,5.51,0,0,0,4.78-1.33.2.2,0,0,1,.28,0,.2.2,0,0,1,0,.29A5.65,5.65,0,0,1,170,141.49Z" style="fill: rgb(38, 50, 56); transform-origin: 171.355px 140.542px;" id="el3sfvhxuzh81" class="animable"></path><path d="M173.35,118.31c-3.83,2.2,5.62,23,12.53,20.08s4.67-14.53,1.25-17.45S178.66,115.27,173.35,118.31Z" style="fill: rgb(38, 50, 56); transform-origin: 181.427px 127.827px;" id="eleqoy8koef9t" class="animable"></path><path d="M171.2,117.33s-4.61.67-7.69,6.42,14.62-5.62,12.12-6.42A7,7,0,0,0,171.2,117.33Z" style="fill: rgb(38, 50, 56); transform-origin: 169.511px 121.169px;" id="el4ee60hwdvxo" class="animable"></path><path d="M187.1,139.45a6.17,6.17,0,0,1-3.37,3.35c-2,.82-3.27-.93-2.91-3,.33-1.83,1.77-4.46,3.9-4.41A2.79,2.79,0,0,1,187.1,139.45Z" style="fill: rgb(238, 193, 187); transform-origin: 184.083px 139.198px;" id="eluecjdkwjnhp" class="animable"></path><path d="M175.75,128.82a.42.42,0,0,1-.29-.12,3.2,3.2,0,0,0-2.74-1.06.41.41,0,0,1-.47-.33.4.4,0,0,1,.32-.47,4,4,0,0,1,3.48,1.3.41.41,0,0,1,0,.57A.38.38,0,0,1,175.75,128.82Z" style="fill: rgb(38, 50, 56); transform-origin: 174.204px 127.815px;" id="elbj9wc3brw86" class="animable"></path><path d="M163.14,127.78a.39.39,0,0,1-.28-.12.41.41,0,0,1,0-.57,4,4,0,0,1,3.48-1.29.41.41,0,0,1-.15.8,3.23,3.23,0,0,0-2.74,1.05A.43.43,0,0,1,163.14,127.78Z" style="fill: rgb(38, 50, 56); transform-origin: 164.685px 126.774px;" id="elodz3zpr70sm" class="animable"></path><path d="M201.51,171.48a135.51,135.51,0,0,1,4.87,14,96.52,96.52,0,0,1,3.17,14.71c.13,1.29.28,2.56.32,3.9l0,1a7,7,0,0,1-.15,2,5.59,5.59,0,0,1-.65,1.56,5.08,5.08,0,0,1-1.31,1.42,5.43,5.43,0,0,1-2.71,1,7.16,7.16,0,0,1-1.78-.05,10.2,10.2,0,0,1-1.32-.27,18.37,18.37,0,0,1-2.14-.74,33,33,0,0,1-3.57-1.78,82,82,0,0,1-12.11-8.69l2.46-3.59c4.21,2.13,8.49,4.35,12.68,6.06,1,.43,2.09.8,3.05,1.09a11,11,0,0,0,1.31.31,2.82,2.82,0,0,0,.46,0c.1,0,.15,0,0,0a1.92,1.92,0,0,0-1,.41,2.78,2.78,0,0,0-1,1.49c-.1.33-.06.61-.1.17l-.09-.81c-.09-1.07-.29-2.17-.47-3.27-.4-2.22-.88-4.45-1.49-6.68s-1.22-4.47-1.91-6.7c-1.43-4.43-3-8.95-4.64-13.23Z" style="fill: rgb(238, 193, 187); transform-origin: 197.008px 191.292px;" id="el5j8c6w36jhh" class="animable"></path><path d="M197.75,162.31c3.49,1.07,7.68,13.09,7.68,13.09l-13.54,9.68s-4.94-10-3.48-14.55C189.94,165.83,193.76,161.1,197.75,162.31Z" style="fill: rgb(73, 54, 40); transform-origin: 196.785px 173.599px;" id="elraz1p2vgam" class="animable"></path><g id="el8cdunk80bxl"><path d="M197.75,162.31c3.49,1.07,7.68,13.09,7.68,13.09l-13.54,9.68s-4.94-10-3.48-14.55C189.94,165.83,193.76,161.1,197.75,162.31Z" style="opacity: 0.3; transform-origin: 196.785px 173.599px;" class="animable"></path></g><path d="M236.79,376.66a1.19,1.19,0,0,1-.91-.47.68.68,0,0,1-.16-.68c.31-1.05,3.29-1.9,3.63-2a.21.21,0,0,1,.21.07.2.2,0,0,1,0,.22c-.54,1-1.59,2.73-2.68,2.85Zm2.2-2.61c-1.18.37-2.72,1-2.88,1.58a.26.26,0,0,0,.08.3.77.77,0,0,0,.68.32C237.45,376.18,238.23,375.37,239,374.05Z" style="fill: rgb(73, 54, 40); transform-origin: 237.64px 375.082px;" id="elli4ofzf7x7k" class="animable"></path><path d="M238.05,374.08a3.58,3.58,0,0,1-2.49-.69.72.72,0,0,1,0-.89,1,1,0,0,1,.77-.47c1.23-.17,3.1,1.46,3.18,1.53a.22.22,0,0,1,.07.19.21.21,0,0,1-.14.15A4.81,4.81,0,0,1,238.05,374.08Zm-1.51-1.66h-.13a.69.69,0,0,0-.49.3c-.14.21-.09.33,0,.41.36.48,2.05.66,3.08.47A5.13,5.13,0,0,0,236.54,372.42Z" style="fill: rgb(73, 54, 40); transform-origin: 237.494px 373.058px;" id="ellhfw7hff6ta" class="animable"></path><path d="M159.66,408a3.26,3.26,0,0,1-2.08-.52,1.16,1.16,0,0,1-.37-1,.65.65,0,0,1,.35-.54c1.05-.58,4.47,1.17,4.86,1.37a.19.19,0,0,1,.1.21.2.2,0,0,1-.16.17A15,15,0,0,1,159.66,408Zm-1.53-1.77a.86.86,0,0,0-.38.07.27.27,0,0,0-.13.22.71.71,0,0,0,.23.65c.52.47,1.93.55,3.84.24A11,11,0,0,0,158.13,406.21Z" style="fill: rgb(73, 54, 40); transform-origin: 159.863px 406.918px;" id="el7yhzffsyaky" class="animable"></path><path d="M162.32,407.68a.11.11,0,0,1-.08,0c-1-.46-3.05-2.31-2.89-3.28,0-.23.2-.52.76-.57a1.43,1.43,0,0,1,1.13.35c1.08.89,1.28,3.2,1.28,3.3a.18.18,0,0,1-.08.18A.19.19,0,0,1,162.32,407.68Zm-2-3.48h-.12c-.38,0-.4.19-.41.23-.09.59,1.28,2,2.32,2.68a4.68,4.68,0,0,0-1.09-2.65A1,1,0,0,0,160.28,404.2Z" style="fill: rgb(73, 54, 40); transform-origin: 160.932px 405.753px;" id="elf33alzsweit" class="animable"></path><path d="M192.09,212.3l.89,3.12c.12.24-.16.49-.57.49H156.55c-.31,0-.57-.16-.59-.35l-.32-3.12c0-.22.25-.4.6-.4h35.28A.63.63,0,0,1,192.09,212.3Z" style="fill: rgb(73, 54, 40); transform-origin: 174.324px 213.974px;" id="elniqv3qvjkag" class="animable"></path><g id="eljulglgvkyeg"><path d="M192.09,212.3l.89,3.12c.12.24-.16.49-.57.49H156.55c-.31,0-.57-.16-.59-.35l-.32-3.12c0-.22.25-.4.6-.4h35.28A.63.63,0,0,1,192.09,212.3Z" style="fill: rgb(255, 255, 255); opacity: 0.6; transform-origin: 174.324px 213.974px;" class="animable"></path></g><path d="M187.35,216.24h1c.18,0,.33-.09.32-.21l-.45-4.05c0-.12-.18-.22-.36-.22h-.95c-.19,0-.33.1-.32.22L187,216C187,216.15,187.16,216.24,187.35,216.24Z" style="fill: rgb(73, 54, 40); transform-origin: 187.63px 214px;" id="elu8768yu247" class="animable"></path><g id="el087v30ezyenp"><path d="M187.35,216.24h1c.18,0,.33-.09.32-.21l-.45-4.05c0-.12-.18-.22-.36-.22h-.95c-.19,0-.33.1-.32.22L187,216C187,216.15,187.16,216.24,187.35,216.24Z" style="opacity: 0.5; transform-origin: 187.63px 214px;" class="animable"></path></g><path d="M159.21,216.24h.94c.19,0,.34-.09.32-.21L160,212c0-.12-.18-.22-.37-.22h-.94c-.19,0-.33.1-.32.22l.44,4.05C158.86,216.15,159,216.24,159.21,216.24Z" style="fill: rgb(73, 54, 40); transform-origin: 159.421px 214.01px;" id="elg83mq3l2aaw" class="animable"></path><g id="el0ml5pjtwy1t"><path d="M159.21,216.24h.94c.19,0,.34-.09.32-.21L160,212c0-.12-.18-.22-.37-.22h-.94c-.19,0-.33.1-.32.22l.44,4.05C158.86,216.15,159,216.24,159.21,216.24Z" style="opacity: 0.5; transform-origin: 159.421px 214.01px;" class="animable"></path></g><path d="M173.28,216.24h.95c.18,0,.33-.09.31-.21L174.1,212c0-.12-.18-.22-.37-.22h-.94c-.19,0-.33.1-.32.22l.44,4.05C172.93,216.15,173.09,216.24,173.28,216.24Z" style="fill: rgb(73, 54, 40); transform-origin: 173.506px 214.01px;" id="el04s631bfdsym" class="animable"></path><g id="el70slrbaxyz4"><path d="M173.28,216.24h.95c.18,0,.33-.09.31-.21L174.1,212c0-.12-.18-.22-.37-.22h-.94c-.19,0-.33.1-.32.22l.44,4.05C172.93,216.15,173.09,216.24,173.28,216.24Z" style="opacity: 0.5; transform-origin: 173.506px 214.01px;" class="animable"></path></g><path d="M187.77,196.87l-2.88-8.81-4.6,7.42s2.71,4.8,6.27,4.73Z" style="fill: rgb(238, 193, 187); transform-origin: 184.03px 194.135px;" id="el5balu4ug5sl" class="animable"></path><path d="M181.83,178l-2.26,29.24a2.89,2.89,0,0,1-3.1,2.65l-55.66-4.29a2.9,2.9,0,0,1-2.66-3.1l2.26-29.24a2.87,2.87,0,0,1,1.08-2,2.93,2.93,0,0,1,2-.63l55.66,4.3a2.89,2.89,0,0,1,2.66,3.1Z" style="fill: rgb(73, 54, 40); transform-origin: 149.986px 190.261px;" id="elyxlig8358w" class="animable"></path><g id="elb7wzbvsqze"><path d="M181.83,178l-2.26,29.24a2.89,2.89,0,0,1-3.1,2.65l-55.66-4.29a2.9,2.9,0,0,1-2.66-3.1l2.26-29.24a2.87,2.87,0,0,1,1.08-2,2.93,2.93,0,0,1,2-.63l55.66,4.3a2.89,2.89,0,0,1,2.66,3.1Z" style="fill: rgb(255, 255, 255); opacity: 0.8; transform-origin: 149.986px 190.261px;" class="animable"></path></g><path d="M181.07,175.78l-23.84,16.31A11.77,11.77,0,0,1,142.55,191l-21.06-19.77a2.93,2.93,0,0,1,2-.63l55.66,4.3A2.94,2.94,0,0,1,181.07,175.78Z" style="fill: rgb(73, 54, 40); transform-origin: 151.28px 182.375px;" id="el5jk50j5zusx" class="animable"></path><g id="el7048lieq48c"><path d="M181.07,175.78l-23.84,16.31A11.77,11.77,0,0,1,142.55,191l-21.06-19.77a2.93,2.93,0,0,1,2-.63l55.66,4.3A2.94,2.94,0,0,1,181.07,175.78Z" style="fill: rgb(255, 255, 255); opacity: 0.6; transform-origin: 151.28px 182.375px;" class="animable"></path></g><polygon points="178.9 184.05 175.39 190.46 181.07 196.65 184.89 188.06 178.9 184.05" style="fill: rgb(238, 193, 187); transform-origin: 180.14px 190.35px;" id="eli5sizgz7se7" class="animable"></polygon><path d="M173.25,132l-1.56-.76S172.31,132.66,173.25,132Z" style="fill: rgb(38, 50, 56); transform-origin: 172.47px 131.707px;" id="eleqbijw0ue8p" class="animable"></path></g><g id="freepik--Mailbox--inject-101" class="animable animator-active" style="transform-origin: 275.505px 289.766px;"><rect x="321.03" y="250" width="12.26" height="166.24" style="fill: rgb(73, 54, 40); transform-origin: 327.16px 333.12px;" id="elgb6bet8mv4k" class="animable"></rect><g id="elgdb4hvqoi4"><rect x="321.03" y="250" width="12.26" height="166.24" style="fill: rgb(255, 255, 255); opacity: 0.6; transform-origin: 327.16px 333.12px;" class="animable"></rect></g><polygon points="321.03 250 333.29 250 333.29 262.26 321.03 257.75 321.03 250" style="fill: rgb(73, 54, 40); transform-origin: 327.16px 256.13px;" id="el1kkpi9t6656" class="animable"></polygon><g id="elm2ys01kq9he"><polygon points="321.03 250 333.29 250 333.29 262.26 321.03 257.75 321.03 250" style="fill: rgb(255, 255, 255); opacity: 0.4; transform-origin: 327.16px 256.13px;" class="animable"></polygon></g><path d="M307.8,210.12a29.34,29.34,0,1,0-58.67,0V250H307.8Z" style="fill: rgb(73, 54, 40); transform-origin: 278.465px 215.119px;" id="elhrxnsja01yp" class="animable"></path><g id="elro1akcdnmk"><path d="M307.8,210.12a29.34,29.34,0,1,0-58.67,0V250H307.8Z" style="opacity: 0.3; transform-origin: 278.465px 215.119px;" class="animable"></path></g><path d="M243.57,267.11c-3.92,16.2,6,29.33,22.24,29.33s32.51-13.13,36.43-29.33l4.08-16.87a1.54,1.54,0,0,0-1.5-1.91H249.33a1.55,1.55,0,0,0-1.5,1.19Z" style="fill: rgb(73, 54, 40); transform-origin: 274.54px 272.385px;" id="el64gkkee3kde" class="animable"></path><g id="el5c4h6wwkqc8"><path d="M243.57,267.11c-3.92,16.2,6,29.33,22.24,29.33s32.51-13.13,36.43-29.33l4.08-16.87a1.54,1.54,0,0,0-1.5-1.91H249.33a1.55,1.55,0,0,0-1.5,1.19Z" style="fill: rgb(255, 255, 255); opacity: 0.4; transform-origin: 274.54px 272.385px;" class="animable"></path></g><path d="M241.21,267.11c-3.92,16.2,6,29.33,22.24,29.33s32.51-13.13,36.43-29.33L304,250.24a1.54,1.54,0,0,0-1.5-1.91H247a1.55,1.55,0,0,0-1.5,1.19Z" style="fill: rgb(73, 54, 40); transform-origin: 272.2px 272.385px;" id="elk2rdkvsgbp" class="animable"></path><g id="elwlaxieq4hts"><path d="M241.21,267.11c-3.92,16.2,6,29.33,22.24,29.33s32.51-13.13,36.43-29.33L304,250.24a1.54,1.54,0,0,0-1.5-1.91H247a1.55,1.55,0,0,0-1.5,1.19Z" style="fill: rgb(255, 255, 255); opacity: 0.5; transform-origin: 272.2px 272.385px;" class="animable"></path></g><path d="M376.84,210.11V250h-69V210.11a29.34,29.34,0,0,0-29.33-29.33h69.05a29.34,29.34,0,0,1,29.33,29.33Z" style="fill: rgb(73, 54, 40); transform-origin: 327.7px 215.39px;" id="el85pxlr4ivv" class="animable"></path><g id="eludkmplvr96"><path d="M376.84,210.11V250h-69V210.11a29.34,29.34,0,0,0-29.33-29.33h69.05a29.34,29.34,0,0,1,29.33,29.33Z" style="fill: rgb(255, 255, 255); opacity: 0.5; transform-origin: 327.7px 215.39px;" class="animable"></path></g><path d="M376.84,210.11v10.67h-69V210.11a29.13,29.13,0,0,0-6.18-18h69.05A29.13,29.13,0,0,1,376.84,210.11Z" style="fill: rgb(73, 54, 40); transform-origin: 339.25px 206.445px;" id="elmlb4ae677fs" class="animable"></path><g id="elckqr7pdcy2d"><path d="M376.84,210.11v10.67h-69V210.11a29.13,29.13,0,0,0-6.18-18h69.05A29.13,29.13,0,0,1,376.84,210.11Z" style="fill: rgb(255, 255, 255); opacity: 0.7; transform-origin: 339.25px 206.445px;" class="animable"></path></g><path d="M317.41,225.92v-59a3.62,3.62,0,0,1,4.21-3.58l14.14,2.34a2.16,2.16,0,0,1,1.81,2.14v3.66a2.17,2.17,0,0,1-2.17,2.17H321.91v52.25a2.25,2.25,0,0,1-2.25,2.25h0A2.25,2.25,0,0,1,317.41,225.92Z" style="fill: rgb(73, 54, 40); transform-origin: 327.49px 195.721px;" id="elcsslhj0dgf" class="animable"></path><g id="eljrywkhrj5p"><path d="M317.41,225.92v-59a3.62,3.62,0,0,1,4.21-3.58l14.14,2.34a2.16,2.16,0,0,1,1.81,2.14v3.66a2.17,2.17,0,0,1-2.17,2.17H321.91v52.25a2.25,2.25,0,0,1-2.25,2.25h0A2.25,2.25,0,0,1,317.41,225.92Z" style="opacity: 0.3; transform-origin: 327.49px 195.721px;" class="animable"></path></g><path d="M278.46,188.57v29.32a2.9,2.9,0,0,1-2.88,2.89H219.75a2.9,2.9,0,0,1-2.88-2.89V188.57a2.9,2.9,0,0,1,2.88-2.89h55.83a2.9,2.9,0,0,1,2.88,2.89Z" style="fill: rgb(73, 54, 40); transform-origin: 247.665px 203.23px;" id="el0mo3pa24dhe" class="animable"></path><g id="elb0wkisqjd4a"><path d="M278.46,188.57v29.32a2.9,2.9,0,0,1-2.88,2.89H219.75a2.9,2.9,0,0,1-2.88-2.89V188.57a2.9,2.9,0,0,1,2.88-2.89h55.83a2.9,2.9,0,0,1,2.88,2.89Z" style="fill: rgb(255, 255, 255); opacity: 0.8; transform-origin: 247.665px 203.23px;" class="animable"></path></g><path d="M277.54,186.46,255,204.55a11.78,11.78,0,0,1-14.73,0l-22.51-18.09a2.89,2.89,0,0,1,2-.78h55.83A2.89,2.89,0,0,1,277.54,186.46Z" style="fill: rgb(73, 54, 40); transform-origin: 247.65px 196.408px;" id="elmjf11zd1gi" class="animable"></path><g id="elogax0mah0w7"><path d="M277.54,186.46,255,204.55a11.78,11.78,0,0,1-14.73,0l-22.51-18.09a2.89,2.89,0,0,1,2-.78h55.83A2.89,2.89,0,0,1,277.54,186.46Z" style="fill: rgb(255, 255, 255); opacity: 0.6; transform-origin: 247.65px 196.408px;" class="animable"></path></g><path d="M235.68,232.6v29.33a2.89,2.89,0,0,1-2.88,2.89H177a2.9,2.9,0,0,1-2.88-2.89V232.6a2.88,2.88,0,0,1,2.88-2.88H232.8a2.88,2.88,0,0,1,2.88,2.88Z" style="fill: rgb(73, 54, 40); transform-origin: 204.9px 247.27px;" id="elfvgttt6xwj" class="animable"></path><g id="elgnd01c361h"><path d="M235.68,232.6v29.33a2.89,2.89,0,0,1-2.88,2.89H177a2.9,2.9,0,0,1-2.88-2.89V232.6a2.88,2.88,0,0,1,2.88-2.88H232.8a2.88,2.88,0,0,1,2.88,2.88Z" style="fill: rgb(255, 255, 255); opacity: 0.8; transform-origin: 204.9px 247.27px;" class="animable"></path></g><path d="M234.76,230.49l-22.51,18.09a11.75,11.75,0,0,1-14.73,0L175,230.49a2.88,2.88,0,0,1,2-.77H232.8A2.85,2.85,0,0,1,234.76,230.49Z" style="fill: rgb(73, 54, 40); transform-origin: 204.88px 240.447px;" id="ellsifgrer2v" class="animable"></path><g id="el0jzklr2ifr08"><path d="M234.76,230.49l-22.51,18.09a11.75,11.75,0,0,1-14.73,0L175,230.49a2.88,2.88,0,0,1,2-.77H232.8A2.85,2.85,0,0,1,234.76,230.49Z" style="fill: rgb(255, 255, 255); opacity: 0.6; transform-origin: 204.88px 240.447px;" class="animable"></path></g><path d="M307.8,210.62v35.1H286.94a2.9,2.9,0,0,1-2.89-2.89V213.51a2.91,2.91,0,0,1,2.89-2.89Z" style="fill: rgb(73, 54, 40); transform-origin: 295.925px 228.17px;" id="el8sqrq2dm0kx" class="animable"></path><g id="elbdmi1nrybbs"><path d="M307.8,210.62v35.1H286.94a2.9,2.9,0,0,1-2.89-2.89V213.51a2.91,2.91,0,0,1,2.89-2.89Z" style="fill: rgb(255, 255, 255); opacity: 0.8; transform-origin: 295.925px 228.17px;" class="animable"></path></g><path d="M307.8,210.62v19.1a3.55,3.55,0,0,1-.31-.23L285,211.4a2.85,2.85,0,0,1,2-.78Z" style="fill: rgb(73, 54, 40); transform-origin: 296.4px 220.17px;" id="eldeobs1y88s" class="animable"></path><g id="elyvfaa7q6clc"><path d="M307.8,210.62v19.1a3.55,3.55,0,0,1-.31-.23L285,211.4a2.85,2.85,0,0,1,2-.78Z" style="fill: rgb(255, 255, 255); opacity: 0.6; transform-origin: 296.4px 220.17px;" class="animable"></path></g><g id="elueootkdwwfh"><rect x="303.22" y="210.62" width="4.57" height="35.1" style="fill: rgb(73, 54, 40); opacity: 0.5; transform-origin: 305.505px 228.17px;" class="animable"></rect></g></g><defs>     <filter id="active" height="200%">         <feMorphology in="SourceAlpha" result="DILATED" operator="dilate" radius="2"></feMorphology>                <feFlood flood-color="#32DFEC" flood-opacity="1" result="PINK"></feFlood>        <feComposite in="PINK" in2="DILATED" operator="in" result="OUTLINE"></feComposite>        <feMerge>            <feMergeNode in="OUTLINE"></feMergeNode>            <feMergeNode in="SourceGraphic"></feMergeNode>        </feMerge>    </filter>    <filter id="hover" height="200%">        <feMorphology in="SourceAlpha" result="DILATED" operator="dilate" radius="2"></feMorphology>                <feFlood flood-color="#ff0000" flood-opacity="0.5" result="PINK"></feFlood>        <feComposite in="PINK" in2="DILATED" operator="in" result="OUTLINE"></feComposite>        <feMerge>            <feMergeNode in="OUTLINE"></feMergeNode>            <feMergeNode in="SourceGraphic"></feMergeNode>        </feMerge>            <feColorMatrix type="matrix" values="0   0   0   0   0                0   1   0   0   0                0   0   0   0   0                0   0   0   1   0 "></feColorMatrix>    </filter></defs></svg>